<svg xmlns="http://www.w3.org/2000/svg" xmlns:xlink="http://www.w3.org/1999/xlink" width="500" zoomAndPan="magnify" viewBox="0 0 375 374.999991" height="500" preserveAspectRatio="xMidYMid meet" version="1.0"><defs><clipPath id="1e901f3716"><path d="M 43.871094 37.5 L 220 37.5 L 220 331 L 43.871094 331 Z M 43.871094 37.5 " clip-rule="nonzero"/></clipPath></defs><path fill="#ffffff" d="M 303.21875 174.558594 L 131.667969 174.558594 C 126.28125 174.558594 121.910156 178.929688 121.910156 184.3125 C 121.910156 189.695312 126.28125 194.066406 131.667969 194.066406 L 303.21875 194.066406 L 261.339844 235.945312 C 257.535156 239.75 257.535156 245.933594 261.339844 249.738281 C 265.144531 253.542969 271.328125 253.542969 275.132812 249.738281 L 333.664062 191.210938 C 337.476562 187.40625 337.476562 181.21875 333.664062 177.414062 L 275.132812 118.886719 C 271.328125 115.082031 265.144531 115.082031 261.339844 118.886719 C 257.535156 122.691406 257.535156 128.875 261.339844 132.679688 Z M 303.21875 174.558594 " fill-opacity="1" fill-rule="evenodd"/><g clip-path="url(#1e901f3716)"><path fill="#ffffff" d="M 219.460938 106.273438 L 219.460938 67.253906 C 219.460938 51.089844 206.359375 37.988281 190.195312 37.988281 L 73.136719 37.988281 C 56.972656 37.988281 43.871094 51.089844 43.871094 67.253906 L 43.871094 301.371094 C 43.871094 317.535156 56.972656 330.636719 73.136719 330.636719 L 190.195312 330.636719 C 206.359375 330.636719 219.460938 317.535156 219.460938 301.371094 C 219.460938 301.371094 219.460938 262.351562 219.460938 262.351562 C 219.460938 256.96875 215.089844 252.597656 209.707031 252.597656 C 204.320312 252.597656 199.953125 256.96875 199.953125 262.351562 L 199.953125 301.371094 C 199.953125 306.757812 195.582031 311.128906 190.195312 311.128906 C 190.195312 311.128906 73.136719 311.128906 73.136719 311.128906 C 67.753906 311.128906 63.382812 306.757812 63.382812 301.371094 L 63.382812 67.253906 C 63.382812 61.867188 67.753906 57.496094 73.136719 57.496094 C 73.136719 57.496094 190.195312 57.496094 190.195312 57.496094 C 195.582031 57.496094 199.953125 61.867188 199.953125 67.253906 L 199.953125 106.273438 C 199.953125 111.65625 204.320312 116.027344 209.707031 116.027344 C 215.089844 116.027344 219.460938 111.65625 219.460938 106.273438 Z M 219.460938 106.273438 " fill-opacity="1" fill-rule="evenodd"/></g></svg>