<svg xmlns="http://www.w3.org/2000/svg" xmlns:xlink="http://www.w3.org/1999/xlink" width="500" zoomAndPan="magnify" viewBox="0 0 375 374.999991" height="500" preserveAspectRatio="xMidYMid meet" version="1.0"><defs><clipPath id="b9583abbd3"><path d="M 39.144531 49.144531 L 336 49.144531 L 336 311.644531 L 39.144531 311.644531 Z M 39.144531 49.144531 " clip-rule="nonzero"/></clipPath></defs><g clip-path="url(#b9583abbd3)"><path fill="#ffffff" d="M 92.273438 247.492188 C 90.316406 244.21875 91.382812 239.972656 94.660156 238.015625 C 97.933594 236.058594 102.175781 237.128906 104.132812 240.402344 C 114.550781 257.785156 129.371094 272.242188 147.03125 282.257812 C 164.039062 291.898438 183.738281 297.40625 204.742188 297.40625 C 237.109375 297.40625 266.410156 284.285156 287.625 263.085938 C 308.835938 241.871094 321.945312 212.570312 321.945312 180.207031 C 321.945312 147.839844 308.820312 118.539062 287.625 97.324219 C 266.410156 76.113281 237.109375 63.003906 204.742188 63.003906 C 172.378906 63.003906 143.078125 76.128906 121.863281 97.324219 C 102.609375 116.582031 90.011719 142.511719 87.859375 171.355469 L 109.738281 150.847656 C 112.527344 148.226562 116.910156 148.367188 119.519531 151.15625 C 122.140625 153.929688 122.003906 158.3125 119.214844 160.933594 L 85.375 192.648438 C 82.699219 195.175781 78.539062 195.148438 75.902344 192.648438 L 42.0625 160.933594 C 39.277344 158.3125 39.152344 153.941406 41.757812 151.15625 C 44.382812 148.367188 48.75 148.242188 51.539062 150.847656 L 73.902344 171.8125 C 75.984375 138.960938 90.164062 109.394531 112.027344 87.515625 C 135.75 63.792969 168.519531 49.128906 204.714844 49.128906 C 240.910156 49.128906 273.679688 63.792969 297.402344 87.515625 C 321.128906 111.226562 335.792969 144.007812 335.792969 180.207031 C 335.792969 216.402344 321.128906 249.171875 297.402344 272.894531 C 273.679688 296.617188 240.910156 311.28125 204.714844 311.28125 C 181.285156 311.28125 159.253906 305.109375 140.175781 294.300781 C 120.449219 283.117188 103.898438 266.941406 92.230469 247.503906 Z M 197.820312 103.042969 C 197.820312 99.210938 200.929688 96.105469 204.757812 96.105469 C 208.585938 96.105469 211.695312 99.210938 211.695312 103.042969 L 211.695312 163.820312 C 211.695312 167.609375 212.691406 171.078125 214.539062 173.949219 C 216.382812 176.820312 219.101562 179.191406 222.515625 180.789062 L 273.929688 204.59375 C 277.398438 206.191406 278.910156 210.3125 277.316406 213.777344 C 275.71875 217.246094 271.597656 218.757812 268.132812 217.164062 L 216.714844 193.355469 C 210.875 190.652344 206.160156 186.503906 202.882812 181.382812 C 199.609375 176.265625 197.820312 170.257812 197.820312 163.835938 Z M 197.820312 103.042969 " fill-opacity="1" fill-rule="nonzero"/></g></svg>