<svg xmlns="http://www.w3.org/2000/svg" xmlns:xlink="http://www.w3.org/1999/xlink" width="500" zoomAndPan="magnify" viewBox="0 0 375 374.999991" height="500" preserveAspectRatio="xMidYMid meet" version="1.0"><defs><clipPath id="d8069a3476"><path d="M 161 37.5 L 248 37.5 L 248 77 L 161 77 Z M 161 37.5 " clip-rule="nonzero"/></clipPath><clipPath id="2b45417e5a"><path d="M 52 241 L 161 241 L 161 348.75 L 52 348.75 Z M 52 241 " clip-rule="nonzero"/></clipPath></defs><path fill="#f0f0f0" d="M 106.941406 244.878906 C 119.742188 244.878906 131.445312 249.816406 140.222656 257.863281 C 147.539062 264.445312 153.023438 273.40625 155.402344 283.28125 C 156.316406 287.121094 156.683594 290.960938 156.683594 294.984375 C 156.683594 301.570312 155.402344 307.96875 153.023438 313.820312 L 302.433594 313.820312 L 302.433594 92.726562 L 256.898438 92.726562 L 256.898438 100.226562 C 256.898438 103.335938 254.335938 105.894531 251.046875 105.894531 L 158.144531 105.894531 C 155.035156 105.894531 152.476562 103.335938 152.476562 100.226562 L 152.476562 92.726562 L 106.941406 92.726562 Z M 246.65625 237.746094 L 285.242188 237.746094 L 285.242188 276.332031 L 246.65625 276.332031 Z M 246.65625 219.09375 L 246.65625 180.507812 L 285.242188 180.507812 L 285.242188 219.09375 Z M 246.65625 161.855469 L 246.65625 123.265625 L 285.242188 123.265625 L 285.242188 161.855469 Z M 246.65625 161.855469 " fill-opacity="1" fill-rule="evenodd"/><path fill="#d4ab91" d="M 158.144531 105.894531 L 251.046875 105.894531 C 254.335938 105.894531 256.898438 103.335938 256.898438 100.226562 L 256.898438 60.175781 C 256.898438 57.066406 254.335938 54.507812 251.046875 54.507812 L 244.097656 54.507812 L 244.097656 67.675781 C 243.546875 70.78125 240.804688 73.34375 237.511719 73.34375 L 171.679688 73.34375 C 168.386719 73.34375 165.644531 70.78125 165.277344 67.675781 L 165.277344 54.507812 L 158.144531 54.507812 C 155.035156 54.507812 152.476562 57.066406 152.476562 60.175781 L 152.476562 100.226562 C 152.476562 103.335938 155.035156 105.894531 158.144531 105.894531 Z M 158.144531 105.894531 " fill-opacity="1" fill-rule="evenodd"/><path fill="#ca9878" d="M 171.679688 73.34375 L 237.511719 73.34375 C 240.804688 73.34375 243.546875 70.78125 244.097656 67.675781 C 244.097656 67.308594 244.097656 66.941406 244.097656 66.757812 L 244.097656 47.742188 C 244.097656 44.265625 241.167969 41.15625 237.511719 41.15625 L 171.679688 41.15625 C 168.203125 41.15625 165.277344 44.265625 165.277344 47.742188 L 165.277344 66.757812 C 165.277344 66.941406 165.277344 67.308594 165.277344 67.675781 C 165.644531 70.78125 168.386719 73.34375 171.679688 73.34375 Z M 171.679688 73.34375 " fill-opacity="1" fill-rule="evenodd"/><path fill="#ca9878" d="M 256.898438 74.257812 L 256.898438 92.726562 L 302.433594 92.726562 L 302.433594 313.820312 L 153.023438 313.820312 C 150.097656 320.953125 145.710938 327.355469 140.042969 332.292969 L 305.175781 332.292969 C 312.671875 332.292969 318.890625 326.257812 318.890625 318.574219 L 318.890625 87.972656 C 318.890625 80.476562 312.671875 74.257812 305.175781 74.257812 Z M 256.898438 74.257812 " fill-opacity="1" fill-rule="evenodd"/><path fill="#b3e5a0" d="M 246.65625 123.265625 L 285.242188 123.265625 L 285.242188 161.855469 L 246.65625 161.855469 Z M 246.65625 123.265625 " fill-opacity="1" fill-rule="evenodd"/><path fill="#f48e8c" d="M 246.65625 180.507812 L 285.242188 180.507812 L 285.242188 219.09375 L 246.65625 219.09375 Z M 246.65625 180.507812 " fill-opacity="1" fill-rule="evenodd"/><path fill="#ffd47a" d="M 246.65625 237.746094 L 285.242188 237.746094 L 285.242188 276.332031 L 246.65625 276.332031 Z M 246.65625 237.746094 " fill-opacity="1" fill-rule="evenodd"/><path fill="#8bc34a" d="M 155.402344 283.28125 C 153.023438 273.222656 147.539062 264.445312 140.222656 257.863281 C 131.445312 249.816406 119.742188 244.878906 106.941406 244.878906 C 106.757812 244.878906 106.757812 244.878906 106.574219 244.878906 C 100.90625 244.878906 95.601562 245.792969 90.480469 247.4375 C 70.730469 254.203125 56.46875 272.859375 56.46875 294.984375 C 56.46875 322.597656 78.960938 345.09375 106.574219 345.09375 C 119.375 345.09375 131.082031 340.335938 140.042969 332.292969 C 145.710938 327.355469 150.097656 320.953125 153.023438 313.820312 C 155.402344 307.96875 156.683594 301.570312 156.683594 294.984375 C 156.683594 290.960938 156.316406 287.121094 155.402344 283.28125 Z M 155.402344 283.28125 " fill-opacity="1" fill-rule="evenodd"/><path fill="#ca9878" d="M 106.941406 244.878906 L 106.941406 92.726562 L 152.476562 92.726562 L 152.476562 74.257812 L 104.199219 74.257812 C 96.699219 74.257812 90.480469 80.476562 90.480469 87.972656 L 90.480469 247.4375 C 95.601562 245.792969 100.90625 244.878906 106.574219 244.878906 C 106.757812 244.878906 106.757812 244.878906 106.941406 244.878906 Z M 106.941406 244.878906 " fill-opacity="1" fill-rule="evenodd"/><path fill="#000002" d="M 305.175781 335.949219 L 140.042969 335.949219 C 138.394531 335.949219 137.113281 335.035156 136.566406 333.753906 C 136.019531 332.292969 136.382812 330.644531 137.480469 329.546875 C 147.355469 320.769531 153.023438 308.152344 153.023438 294.984375 C 153.023438 269.382812 132.175781 248.535156 106.574219 248.535156 C 101.453125 248.535156 96.515625 249.265625 91.578125 250.914062 C 90.480469 251.277344 89.203125 251.097656 88.289062 250.546875 C 87.375 249.816406 86.824219 248.71875 86.824219 247.4375 L 86.824219 87.972656 C 86.824219 78.28125 94.6875 70.601562 104.199219 70.601562 L 152.476562 70.601562 C 154.488281 70.601562 156.132812 72.246094 156.132812 74.257812 L 156.132812 100.226562 C 156.132812 101.324219 157.046875 102.238281 158.144531 102.238281 L 251.046875 102.238281 C 252.140625 102.238281 253.238281 101.324219 253.238281 100.226562 L 253.238281 74.257812 C 253.238281 72.246094 254.886719 70.601562 256.898438 70.601562 L 305.175781 70.601562 C 314.683594 70.601562 322.546875 78.28125 322.546875 87.972656 L 322.546875 318.574219 C 322.546875 328.269531 314.683594 335.949219 305.175781 335.949219 Z M 148.453125 328.632812 L 305.175781 328.632812 C 310.660156 328.632812 315.234375 324.246094 315.234375 318.574219 L 315.234375 87.972656 C 315.234375 82.488281 310.660156 77.914062 305.175781 77.914062 L 260.554688 77.914062 L 260.554688 100.226562 C 260.554688 105.347656 256.347656 109.550781 251.046875 109.550781 L 158.144531 109.550781 C 153.023438 109.550781 148.820312 105.347656 148.820312 100.226562 L 148.820312 77.914062 L 104.199219 77.914062 C 98.710938 77.914062 94.140625 82.488281 94.140625 87.972656 L 94.140625 242.683594 C 98.164062 241.585938 102.371094 241.21875 106.574219 241.21875 C 136.199219 241.21875 160.339844 265.359375 160.339844 294.984375 C 160.339844 307.238281 156.132812 319.125 148.453125 328.632812 Z M 148.453125 328.632812 " fill-opacity="1" fill-rule="evenodd"/><path fill="#000002" d="M 302.433594 317.480469 L 153.023438 317.480469 C 151.929688 317.480469 150.648438 316.746094 150.097656 315.832031 C 149.367188 314.734375 149.183594 313.457031 149.734375 312.359375 C 151.929688 306.871094 153.023438 301.019531 153.023438 294.984375 C 153.023438 269.566406 132.359375 248.71875 106.941406 248.535156 C 104.929688 248.535156 103.285156 246.890625 103.285156 244.878906 L 103.285156 92.726562 C 103.285156 90.714844 104.929688 89.070312 106.941406 89.070312 L 152.476562 89.070312 C 154.488281 89.070312 156.132812 90.714844 156.132812 92.726562 L 156.132812 100.226562 C 156.132812 101.324219 157.046875 102.238281 158.144531 102.238281 L 251.046875 102.238281 C 252.140625 102.238281 253.238281 101.324219 253.238281 100.226562 L 253.238281 92.726562 C 253.238281 90.714844 254.886719 89.070312 256.898438 89.070312 L 302.433594 89.070312 C 304.445312 89.070312 306.089844 90.714844 306.089844 92.726562 L 306.089844 313.820312 C 306.089844 315.832031 304.445312 317.480469 302.433594 317.480469 Z M 158.144531 310.164062 L 298.773438 310.164062 L 298.773438 96.566406 L 260.554688 96.566406 L 260.554688 100.226562 C 260.554688 105.347656 256.347656 109.550781 251.046875 109.550781 L 158.144531 109.550781 C 153.023438 109.550781 148.820312 105.347656 148.820312 100.226562 L 148.820312 96.566406 L 110.597656 96.566406 L 110.597656 241.402344 C 138.394531 243.414062 160.339844 266.824219 160.339844 294.984375 C 160.339844 300.105469 159.609375 305.226562 158.144531 310.164062 Z M 158.144531 310.164062 " fill-opacity="1" fill-rule="evenodd"/><path fill="#000002" d="M 251.046875 109.550781 L 158.144531 109.550781 C 153.023438 109.550781 148.820312 105.347656 148.820312 100.226562 L 148.820312 60.175781 C 148.820312 54.871094 153.023438 50.851562 158.144531 50.851562 L 165.277344 50.851562 C 167.289062 50.851562 168.933594 52.3125 168.933594 54.507812 L 168.933594 66.941406 C 168.933594 66.941406 168.933594 67.125 168.933594 67.125 C 169.117188 68.589844 170.398438 69.6875 171.679688 69.6875 L 237.511719 69.6875 C 238.976562 69.6875 240.253906 68.589844 240.4375 67.125 C 240.4375 67.125 240.4375 66.941406 240.4375 66.941406 L 240.4375 54.507812 C 240.4375 52.3125 242.085938 50.851562 244.097656 50.851562 L 251.046875 50.851562 C 256.347656 50.851562 260.554688 54.871094 260.554688 60.175781 L 260.554688 100.226562 C 260.554688 105.347656 256.347656 109.550781 251.046875 109.550781 Z M 158.144531 58.164062 C 157.046875 58.164062 156.132812 59.078125 156.132812 60.175781 L 156.132812 100.226562 C 156.132812 101.324219 157.046875 102.238281 158.144531 102.238281 L 251.046875 102.238281 C 252.140625 102.238281 253.238281 101.324219 253.238281 100.226562 L 253.238281 60.175781 C 253.238281 59.078125 252.140625 58.164062 251.046875 58.164062 L 247.753906 58.164062 L 247.753906 67.675781 C 247.753906 68.039062 247.753906 68.40625 247.570312 68.953125 C 246.472656 73.527344 242.449219 77 237.511719 77 L 171.679688 77 C 166.921875 77 162.71875 73.527344 161.804688 68.769531 C 161.621094 68.40625 161.621094 68.039062 161.621094 67.675781 L 161.621094 58.164062 Z M 158.144531 58.164062 " fill-opacity="1" fill-rule="evenodd"/><g clip-path="url(#d8069a3476)"><path fill="#000002" d="M 237.511719 77 L 171.679688 77 C 166.191406 77 161.621094 72.429688 161.621094 66.757812 L 161.621094 47.742188 C 161.621094 42.070312 166.191406 37.5 171.679688 37.5 L 237.511719 37.5 C 243.179688 37.5 247.753906 42.070312 247.753906 47.742188 L 247.753906 66.757812 C 247.753906 72.429688 243.179688 77 237.511719 77 Z M 171.679688 44.816406 C 170.214844 44.816406 168.933594 46.277344 168.933594 47.742188 L 168.933594 66.757812 C 168.933594 68.40625 170.214844 69.6875 171.679688 69.6875 L 237.511719 69.6875 C 239.160156 69.6875 240.4375 68.40625 240.4375 66.757812 L 240.4375 47.742188 C 240.4375 46.277344 239.160156 44.816406 237.511719 44.816406 Z M 171.679688 44.816406 " fill-opacity="1" fill-rule="evenodd"/></g><path fill="#000002" d="M 227.089844 60.90625 L 182.101562 60.90625 C 180.089844 60.90625 178.445312 59.261719 178.445312 57.25 C 178.445312 55.238281 180.089844 53.59375 182.101562 53.59375 L 227.089844 53.59375 C 229.101562 53.59375 230.746094 55.238281 230.746094 57.25 C 230.746094 59.261719 229.101562 60.90625 227.089844 60.90625 Z M 227.089844 60.90625 " fill-opacity="1" fill-rule="evenodd"/><path fill="#000002" d="M 219.226562 130.582031 L 124.132812 130.582031 C 122.121094 130.582031 120.472656 128.9375 120.472656 126.925781 C 120.472656 124.914062 122.121094 123.265625 124.132812 123.265625 L 219.226562 123.265625 C 221.238281 123.265625 222.882812 124.914062 222.882812 126.925781 C 222.882812 128.9375 221.238281 130.582031 219.226562 130.582031 Z M 219.226562 130.582031 " fill-opacity="1" fill-rule="evenodd"/><path fill="#000002" d="M 187.953125 156 L 124.132812 156 C 122.121094 156 120.472656 154.355469 120.472656 152.34375 C 120.472656 150.332031 122.121094 148.6875 124.132812 148.6875 L 187.953125 148.6875 C 189.964844 148.6875 191.609375 150.332031 191.609375 152.34375 C 191.609375 154.355469 189.964844 156 187.953125 156 Z M 187.953125 156 " fill-opacity="1" fill-rule="evenodd"/><path fill="#000002" d="M 192.34375 210.496094 L 124.132812 210.496094 C 122.121094 210.496094 120.472656 208.851562 120.472656 206.839844 C 120.472656 204.644531 122.121094 203 124.132812 203 L 192.34375 203 C 194.355469 203 196 204.644531 196 206.839844 C 196 208.851562 194.355469 210.496094 192.34375 210.496094 Z M 192.34375 210.496094 " fill-opacity="1" fill-rule="evenodd"/><path fill="#000002" d="M 187.953125 261.519531 L 140.222656 261.519531 C 138.210938 261.519531 136.566406 259.875 136.566406 257.863281 C 136.566406 255.851562 138.210938 254.203125 140.222656 254.203125 L 187.953125 254.203125 C 189.964844 254.203125 191.609375 255.851562 191.609375 257.863281 C 191.609375 259.875 189.964844 261.519531 187.953125 261.519531 Z M 187.953125 261.519531 " fill-opacity="1" fill-rule="evenodd"/><path fill="#000002" d="M 285.242188 165.511719 L 246.65625 165.511719 C 244.644531 165.511719 243 163.867188 243 161.855469 L 243 123.265625 C 243 121.257812 244.644531 119.609375 246.65625 119.609375 L 285.242188 119.609375 C 287.253906 119.609375 288.898438 121.257812 288.898438 123.265625 L 288.898438 161.855469 C 288.898438 163.867188 287.253906 165.511719 285.242188 165.511719 Z M 250.3125 158.195312 L 281.585938 158.195312 L 281.585938 126.925781 L 250.3125 126.925781 Z M 250.3125 158.195312 " fill-opacity="1" fill-rule="evenodd"/><path fill="#000002" d="M 219.226562 184.894531 L 124.132812 184.894531 C 122.121094 184.894531 120.472656 183.25 120.472656 181.238281 C 120.472656 179.226562 122.121094 177.582031 124.132812 177.582031 L 219.226562 177.582031 C 221.238281 177.582031 222.882812 179.226562 222.882812 181.238281 C 222.882812 183.25 221.238281 184.894531 219.226562 184.894531 Z M 219.226562 184.894531 " fill-opacity="1" fill-rule="evenodd"/><path fill="#000002" d="M 187.953125 210.496094 L 124.132812 210.496094 C 122.121094 210.496094 120.472656 208.851562 120.472656 206.839844 C 120.472656 204.644531 122.121094 203 124.132812 203 L 187.953125 203 C 189.964844 203 191.609375 204.644531 191.609375 206.839844 C 191.609375 208.851562 189.964844 210.496094 187.953125 210.496094 Z M 187.953125 210.496094 " fill-opacity="1" fill-rule="evenodd"/><path fill="#000002" d="M 219.226562 235.917969 L 124.132812 235.917969 C 122.121094 235.917969 120.472656 234.269531 120.472656 232.261719 C 120.472656 230.25 122.121094 228.601562 124.132812 228.601562 L 219.226562 228.601562 C 221.238281 228.601562 222.882812 230.25 222.882812 232.261719 C 222.882812 234.269531 221.238281 235.917969 219.226562 235.917969 Z M 219.226562 235.917969 " fill-opacity="1" fill-rule="evenodd"/><path fill="#000002" d="M 219.226562 286.9375 L 155.402344 286.9375 C 153.390625 286.9375 151.746094 285.292969 151.746094 283.28125 C 151.746094 281.269531 153.390625 279.625 155.402344 279.625 L 219.226562 279.625 C 221.238281 279.625 222.882812 281.269531 222.882812 283.28125 C 222.882812 285.292969 221.238281 286.9375 219.226562 286.9375 Z M 219.226562 286.9375 " fill-opacity="1" fill-rule="evenodd"/><path fill="#000002" d="M 285.242188 222.75 L 246.65625 222.75 C 244.644531 222.75 243 221.105469 243 219.09375 L 243 180.507812 C 243 178.496094 244.644531 176.847656 246.65625 176.847656 L 285.242188 176.847656 C 287.253906 176.847656 288.898438 178.496094 288.898438 180.507812 L 288.898438 219.09375 C 288.898438 221.105469 287.253906 222.75 285.242188 222.75 Z M 250.3125 215.433594 L 281.585938 215.433594 L 281.585938 184.164062 L 250.3125 184.164062 Z M 250.3125 215.433594 " fill-opacity="1" fill-rule="evenodd"/><path fill="#000002" d="M 285.242188 279.988281 L 246.65625 279.988281 C 244.644531 279.988281 243 278.34375 243 276.332031 L 243 237.746094 C 243 235.734375 244.644531 234.089844 246.65625 234.089844 L 285.242188 234.089844 C 287.253906 234.089844 288.898438 235.734375 288.898438 237.746094 L 288.898438 276.332031 C 288.898438 278.34375 287.253906 279.988281 285.242188 279.988281 Z M 250.3125 272.675781 L 281.585938 272.675781 L 281.585938 241.402344 L 250.3125 241.402344 Z M 250.3125 272.675781 " fill-opacity="1" fill-rule="evenodd"/><path fill="#000002" d="M 262.199219 153.808594 C 261.285156 153.808594 260.371094 153.441406 259.640625 152.710938 L 251.960938 145.03125 C 250.679688 143.566406 250.679688 141.1875 251.960938 139.910156 C 253.421875 138.445312 255.800781 138.445312 257.261719 139.910156 L 262.199219 144.847656 L 274.636719 132.59375 C 276.097656 131.132812 278.292969 131.132812 279.757812 132.59375 C 281.21875 133.875 281.21875 136.25 279.757812 137.714844 L 264.761719 152.710938 C 264.210938 153.441406 263.113281 153.808594 262.199219 153.808594 Z M 262.199219 153.808594 " fill-opacity="1" fill-rule="evenodd"/><path fill="#000002" d="M 262.199219 211.046875 C 261.285156 211.046875 260.371094 210.679688 259.640625 209.949219 L 251.960938 202.269531 C 250.679688 200.804688 250.679688 198.429688 251.960938 197.148438 C 253.421875 195.683594 255.800781 195.683594 257.261719 197.148438 L 262.199219 202.085938 L 274.636719 189.832031 C 276.097656 188.371094 278.292969 188.371094 279.757812 189.832031 C 281.21875 191.113281 281.21875 193.492188 279.757812 194.953125 L 264.761719 209.949219 C 264.210938 210.679688 263.113281 211.046875 262.199219 211.046875 Z M 262.199219 211.046875 " fill-opacity="1" fill-rule="evenodd"/><path fill="#000002" d="M 262.199219 270.847656 C 261.285156 270.847656 260.371094 270.480469 259.640625 269.75 L 251.960938 262.066406 C 250.679688 260.605469 250.679688 258.226562 251.960938 256.949219 C 253.421875 255.484375 255.800781 255.484375 257.261719 256.949219 L 262.199219 261.886719 L 274.636719 249.632812 C 276.097656 248.167969 278.292969 248.167969 279.757812 249.632812 C 281.21875 250.914062 281.21875 253.289062 279.757812 254.753906 L 264.761719 269.75 C 264.210938 270.480469 263.113281 270.847656 262.199219 270.847656 Z M 262.199219 270.847656 " fill-opacity="1" fill-rule="evenodd"/><g clip-path="url(#2b45417e5a)"><path fill="#000002" d="M 106.574219 348.75 C 76.949219 348.75 52.8125 324.609375 52.8125 294.984375 C 52.8125 265.359375 76.949219 241.21875 106.574219 241.21875 C 136.199219 241.21875 160.339844 265.359375 160.339844 294.984375 C 160.339844 324.609375 136.199219 348.75 106.574219 348.75 Z M 106.574219 248.535156 C 80.972656 248.535156 60.125 269.382812 60.125 294.984375 C 60.125 320.585938 80.972656 341.433594 106.574219 341.433594 C 132.175781 341.433594 153.023438 320.585938 153.023438 294.984375 C 153.023438 269.382812 132.175781 248.535156 106.574219 248.535156 Z M 106.574219 248.535156 " fill-opacity="1" fill-rule="evenodd"/></g><path fill="#000002" d="M 97.613281 317.480469 C 96.515625 317.480469 95.601562 317.113281 94.871094 316.5625 L 75.121094 296.632812 C 73.839844 295.351562 73.839844 292.972656 75.121094 291.511719 C 76.585938 290.046875 78.960938 290.046875 80.425781 291.511719 L 97.613281 308.699219 L 132.726562 273.40625 C 134.1875 272.125 136.566406 272.125 138.03125 273.40625 C 139.308594 274.871094 139.308594 277.246094 138.03125 278.710938 L 100.175781 316.5625 C 99.441406 317.113281 98.527344 317.480469 97.613281 317.480469 Z M 97.613281 317.480469 " fill-opacity="1" fill-rule="evenodd"/></svg>