<svg xmlns="http://www.w3.org/2000/svg" xmlns:xlink="http://www.w3.org/1999/xlink" width="500" zoomAndPan="magnify" viewBox="0 0 375 374.999991" height="500" preserveAspectRatio="xMidYMid meet" version="1.0"><defs><clipPath id="94f4bf7e5d"><path d="M 55.503906 60 L 258 60 L 258 337.5 L 55.503906 337.5 Z M 55.503906 60 " clip-rule="nonzero"/></clipPath><clipPath id="6b98db7e8a"><path d="M 55.503906 60 L 97 60 L 97 337.5 L 55.503906 337.5 Z M 55.503906 60 " clip-rule="nonzero"/></clipPath></defs><path fill="#384868" d="M 295.597656 154.335938 C 295.355469 154.199219 295.128906 154.039062 294.917969 153.855469 C 294.707031 153.675781 294.519531 153.472656 294.347656 153.253906 C 294.175781 153.035156 294.03125 152.800781 293.90625 152.554688 C 293.78125 152.304688 293.683594 152.046875 293.609375 151.777344 C 293.535156 151.511719 293.488281 151.238281 293.472656 150.960938 C 293.453125 150.683594 293.460938 150.40625 293.496094 150.132812 C 293.53125 149.855469 293.59375 149.585938 293.679688 149.324219 C 293.769531 149.058594 293.882812 148.808594 294.023438 148.566406 C 294.160156 148.324219 294.320312 148.101562 294.503906 147.890625 C 294.6875 147.683594 294.890625 147.492188 295.109375 147.324219 C 295.328125 147.15625 295.566406 147.007812 295.8125 146.886719 C 296.0625 146.765625 296.320312 146.667969 296.589844 146.59375 C 296.859375 146.523438 297.132812 146.480469 297.410156 146.460938 C 297.6875 146.445312 297.960938 146.453125 298.238281 146.492188 C 298.511719 146.527344 298.78125 146.589844 299.046875 146.683594 C 299.308594 146.773438 299.558594 146.886719 299.800781 147.027344 L 310.691406 153.324219 C 310.925781 153.425781 311.144531 153.550781 311.34375 153.703125 C 312.074219 154.148438 312.75 154.65625 313.382812 155.230469 C 314.011719 155.800781 314.585938 156.429688 315.09375 157.113281 C 315.605469 157.796875 316.046875 158.519531 316.421875 159.285156 C 316.792969 160.054688 317.089844 160.847656 317.3125 161.671875 C 317.535156 162.492188 317.675781 163.332031 317.738281 164.179688 C 317.800781 165.03125 317.78125 165.878906 317.683594 166.726562 C 317.582031 167.574219 317.402344 168.402344 317.144531 169.214844 C 316.886719 170.027344 316.554688 170.808594 316.148438 171.558594 C 316.042969 171.792969 315.917969 172.015625 315.773438 172.226562 L 294.566406 208.9375 C 294.429688 209.175781 294.269531 209.402344 294.089844 209.609375 C 293.90625 209.820312 293.707031 210.007812 293.484375 210.175781 C 293.265625 210.347656 293.03125 210.492188 292.785156 210.617188 C 292.535156 210.738281 292.277344 210.835938 292.011719 210.910156 C 291.742188 210.980469 291.472656 211.027344 291.195312 211.046875 C 290.917969 211.066406 290.644531 211.054688 290.367188 211.019531 C 290.09375 210.984375 289.824219 210.921875 289.5625 210.835938 C 289.300781 210.746094 289.050781 210.632812 288.808594 210.496094 C 288.570312 210.355469 288.34375 210.195312 288.136719 210.015625 C 287.925781 209.832031 287.738281 209.628906 287.570312 209.410156 C 287.402344 209.191406 287.253906 208.957031 287.132812 208.710938 C 287.007812 208.460938 286.910156 208.203125 286.839844 207.933594 C 286.769531 207.667969 286.722656 207.394531 286.703125 207.121094 C 286.6875 206.84375 286.695312 206.566406 286.730469 206.292969 C 286.765625 206.019531 286.828125 205.75 286.917969 205.488281 C 287.007812 205.226562 287.121094 204.972656 287.257812 204.734375 L 308.53125 167.886719 C 308.566406 167.820312 308.617188 167.734375 308.648438 167.664062 C 308.8125 167.378906 308.941406 167.082031 309.046875 166.769531 C 309.148438 166.460938 309.222656 166.140625 309.261719 165.816406 C 309.304688 165.492188 309.3125 165.164062 309.292969 164.839844 C 309.269531 164.511719 309.214844 164.191406 309.128906 163.875 C 309.046875 163.558594 308.929688 163.253906 308.785156 162.957031 C 308.640625 162.664062 308.46875 162.386719 308.269531 162.128906 C 308.074219 161.867188 307.851562 161.628906 307.605469 161.410156 C 307.359375 161.195312 307.097656 161.003906 306.8125 160.835938 L 306.8125 160.820312 Z M 295.597656 154.335938 " fill-opacity="1" fill-rule="nonzero"/><g clip-path="url(#94f4bf7e5d)"><path fill="#fba615" d="M 70.214844 60.585938 L 242.640625 60.585938 C 243.601562 60.589844 244.554688 60.6875 245.5 60.875 C 246.445312 61.0625 247.359375 61.34375 248.25 61.714844 C 249.140625 62.082031 249.984375 62.535156 250.785156 63.070312 C 251.585938 63.605469 252.324219 64.210938 253.007812 64.890625 C 253.6875 65.574219 254.296875 66.3125 254.832031 67.113281 C 255.367188 67.914062 255.820312 68.757812 256.191406 69.644531 C 256.5625 70.535156 256.84375 71.449219 257.035156 72.394531 C 257.222656 73.339844 257.320312 74.292969 257.324219 75.253906 L 257.324219 322.71875 C 257.320312 323.683594 257.222656 324.636719 257.035156 325.582031 C 256.84375 326.523438 256.5625 327.441406 256.191406 328.328125 C 255.820312 329.21875 255.367188 330.0625 254.832031 330.863281 C 254.296875 331.660156 253.6875 332.402344 253.007812 333.082031 C 252.324219 333.761719 251.585938 334.371094 250.785156 334.90625 C 249.984375 335.441406 249.140625 335.894531 248.25 336.261719 C 247.359375 336.632812 246.445312 336.910156 245.5 337.101562 C 244.554688 337.289062 243.601562 337.386719 242.640625 337.386719 L 70.214844 337.386719 C 69.253906 337.386719 68.296875 337.289062 67.355469 337.101562 C 66.410156 336.910156 65.492188 336.632812 64.605469 336.261719 C 63.714844 335.894531 62.871094 335.441406 62.070312 334.90625 C 61.269531 334.371094 60.527344 333.761719 59.847656 333.082031 C 59.167969 332.402344 58.558594 331.660156 58.023438 330.863281 C 57.484375 330.0625 57.03125 329.21875 56.664062 328.328125 C 56.292969 327.441406 56.011719 326.523438 55.820312 325.582031 C 55.628906 324.636719 55.535156 323.683594 55.53125 322.71875 L 55.53125 75.253906 C 55.535156 74.292969 55.628906 73.339844 55.820312 72.394531 C 56.011719 71.449219 56.292969 70.535156 56.664062 69.644531 C 57.03125 68.757812 57.484375 67.914062 58.023438 67.113281 C 58.558594 66.3125 59.167969 65.574219 59.847656 64.894531 C 60.527344 64.210938 61.269531 63.605469 62.070312 63.070312 C 62.871094 62.535156 63.714844 62.082031 64.605469 61.714844 C 65.492188 61.34375 66.410156 61.066406 67.355469 60.875 C 68.296875 60.6875 69.253906 60.589844 70.214844 60.585938 Z M 70.214844 60.585938 " fill-opacity="1" fill-rule="evenodd"/></g><path fill="#e1edf7" d="M 73.390625 78.429688 L 239.464844 78.429688 L 239.464844 319.546875 L 73.390625 319.546875 Z M 73.390625 78.429688 " fill-opacity="1" fill-rule="nonzero"/><path fill="#384868" d="M 132.128906 52.660156 L 139.796875 52.660156 C 139.800781 52.121094 139.828125 51.578125 139.886719 51.039062 C 139.941406 50.496094 140.023438 49.960938 140.132812 49.429688 C 140.242188 48.898438 140.375 48.371094 140.535156 47.855469 C 140.695312 47.335938 140.882812 46.824219 141.09375 46.324219 C 141.300781 45.824219 141.535156 45.335938 141.792969 44.855469 C 142.050781 44.378906 142.332031 43.914062 142.636719 43.464844 C 142.9375 43.015625 143.261719 42.582031 143.609375 42.164062 C 143.953125 41.742188 144.320312 41.34375 144.707031 40.960938 C 145.089844 40.578125 145.492188 40.214844 145.914062 39.871094 C 146.335938 39.527344 146.769531 39.207031 147.222656 38.90625 C 147.675781 38.605469 148.140625 38.328125 148.621094 38.070312 C 149.097656 37.816406 149.589844 37.585938 150.09375 37.378906 C 150.59375 37.171875 151.105469 36.988281 151.625 36.832031 C 152.144531 36.675781 152.671875 36.542969 153.203125 36.4375 C 153.734375 36.332031 154.273438 36.253906 154.8125 36.203125 C 155.351562 36.148438 155.894531 36.121094 156.4375 36.121094 C 156.980469 36.121094 157.523438 36.148438 158.0625 36.203125 C 158.601562 36.253906 159.136719 36.332031 159.671875 36.4375 C 160.203125 36.542969 160.730469 36.675781 161.25 36.832031 C 161.769531 36.988281 162.28125 37.171875 162.78125 37.378906 C 163.285156 37.585938 163.773438 37.816406 164.253906 38.070312 C 164.734375 38.328125 165.199219 38.605469 165.652344 38.90625 C 166.101562 39.207031 166.539062 39.527344 166.960938 39.871094 C 167.378906 40.214844 167.785156 40.578125 168.167969 40.960938 C 168.554688 41.34375 168.917969 41.742188 169.265625 42.164062 C 169.609375 42.582031 169.933594 43.015625 170.238281 43.464844 C 170.542969 43.914062 170.824219 44.378906 171.082031 44.855469 C 171.339844 45.335938 171.570312 45.824219 171.78125 46.324219 C 171.992188 46.824219 172.175781 47.335938 172.335938 47.855469 C 172.496094 48.371094 172.632812 48.898438 172.742188 49.429688 C 172.847656 49.960938 172.933594 50.496094 172.988281 51.039062 C 173.042969 51.578125 173.074219 52.121094 173.078125 52.660156 L 180.730469 52.660156 C 181.308594 52.664062 181.886719 52.695312 182.464844 52.753906 C 183.042969 52.8125 183.613281 52.898438 184.183594 53.011719 C 184.75 53.125 185.3125 53.269531 185.867188 53.4375 C 186.421875 53.609375 186.964844 53.804688 187.5 54.027344 C 188.035156 54.25 188.558594 54.496094 189.070312 54.773438 C 189.582031 55.046875 190.078125 55.34375 190.558594 55.667969 C 191.042969 55.988281 191.507812 56.335938 191.953125 56.703125 C 192.402344 57.070312 192.832031 57.460938 193.242188 57.871094 C 193.652344 58.28125 194.039062 58.707031 194.410156 59.15625 C 194.777344 59.605469 195.121094 60.070312 195.445312 60.550781 C 195.765625 61.035156 196.066406 61.53125 196.339844 62.039062 C 196.613281 62.550781 196.859375 63.074219 197.082031 63.609375 C 197.304688 64.144531 197.503906 64.691406 197.671875 65.246094 C 197.839844 65.800781 197.984375 66.359375 198.097656 66.929688 C 198.210938 67.5 198.296875 68.070312 198.355469 68.648438 C 198.414062 69.222656 198.445312 69.800781 198.445312 70.382812 L 198.445312 83.710938 C 198.445312 84 198.417969 84.285156 198.363281 84.570312 C 198.304688 84.851562 198.222656 85.128906 198.113281 85.394531 C 198 85.660156 197.867188 85.914062 197.707031 86.152344 C 197.546875 86.394531 197.363281 86.617188 197.160156 86.820312 C 196.957031 87.027344 196.734375 87.207031 196.496094 87.371094 C 196.253906 87.53125 196.003906 87.667969 195.738281 87.777344 C 195.46875 87.890625 195.195312 87.972656 194.914062 88.03125 C 194.628906 88.089844 194.34375 88.117188 194.054688 88.121094 L 118.796875 88.121094 C 118.507812 88.117188 118.222656 88.089844 117.941406 88.03125 C 117.65625 87.972656 117.382812 87.890625 117.117188 87.777344 C 116.851562 87.667969 116.597656 87.53125 116.359375 87.371094 C 116.117188 87.207031 115.898438 87.027344 115.691406 86.820312 C 115.488281 86.617188 115.308594 86.394531 115.148438 86.152344 C 114.988281 85.914062 114.851562 85.660156 114.742188 85.394531 C 114.632812 85.128906 114.546875 84.851562 114.492188 84.570312 C 114.433594 84.285156 114.40625 84 114.40625 83.710938 L 114.40625 70.382812 C 114.40625 69.800781 114.4375 69.222656 114.496094 68.648438 C 114.554688 68.070312 114.640625 67.496094 114.753906 66.929688 C 114.871094 66.359375 115.011719 65.800781 115.179688 65.246094 C 115.351562 64.691406 115.546875 64.144531 115.769531 63.609375 C 115.992188 63.074219 116.242188 62.550781 116.515625 62.039062 C 116.789062 61.527344 117.085938 61.03125 117.410156 60.550781 C 117.730469 60.070312 118.078125 59.605469 118.445312 59.15625 C 118.8125 58.707031 119.203125 58.277344 119.613281 57.867188 C 120.023438 57.457031 120.453125 57.070312 120.898438 56.703125 C 121.347656 56.332031 121.8125 55.988281 122.296875 55.664062 C 122.777344 55.34375 123.273438 55.042969 123.785156 54.769531 C 124.296875 54.496094 124.820312 54.25 125.355469 54.027344 C 125.890625 53.804688 126.433594 53.605469 126.988281 53.4375 C 127.542969 53.269531 128.105469 53.125 128.675781 53.011719 C 129.242188 52.898438 129.816406 52.8125 130.390625 52.753906 C 130.96875 52.695312 131.546875 52.664062 132.128906 52.660156 Z M 132.128906 52.660156 " fill-opacity="1" fill-rule="evenodd"/><path fill="#1a98cf" d="M 112.757812 160.03125 C 113.382812 160.03125 114.007812 160 114.632812 159.9375 C 115.253906 159.875 115.871094 159.785156 116.484375 159.660156 C 117.097656 159.539062 117.703125 159.386719 118.304688 159.207031 C 118.902344 159.023438 119.488281 158.8125 120.066406 158.574219 C 120.644531 158.332031 121.210938 158.066406 121.761719 157.769531 C 122.3125 157.476562 122.847656 157.15625 123.367188 156.808594 C 123.886719 156.460938 124.390625 156.085938 124.875 155.691406 C 125.355469 155.292969 125.820312 154.875 126.261719 154.429688 C 126.703125 153.988281 127.125 153.527344 127.519531 153.042969 C 127.917969 152.558594 128.289062 152.058594 128.636719 151.535156 C 128.984375 151.015625 129.304688 150.480469 129.597656 149.929688 C 129.894531 149.378906 130.160156 148.8125 130.398438 148.234375 C 130.640625 147.65625 130.851562 147.066406 131.03125 146.46875 C 131.210938 145.871094 131.363281 145.265625 131.484375 144.652344 C 131.609375 144.039062 131.699219 143.421875 131.761719 142.796875 C 131.820312 142.175781 131.851562 141.550781 131.851562 140.925781 C 131.851562 140.300781 131.820312 139.675781 131.761719 139.054688 C 131.699219 138.429688 131.605469 137.8125 131.484375 137.199219 C 131.363281 136.585938 131.210938 135.980469 131.03125 135.382812 C 130.847656 134.785156 130.636719 134.195312 130.398438 133.617188 C 130.160156 133.039062 129.890625 132.476562 129.597656 131.921875 C 129.300781 131.371094 128.980469 130.835938 128.632812 130.316406 C 128.285156 129.796875 127.914062 129.292969 127.515625 128.8125 C 127.121094 128.328125 126.699219 127.863281 126.257812 127.421875 C 125.816406 126.980469 125.351562 126.558594 124.867188 126.164062 C 124.386719 125.765625 123.882812 125.394531 123.363281 125.046875 C 122.84375 124.699219 122.308594 124.378906 121.753906 124.082031 C 121.203125 123.789062 120.640625 123.519531 120.0625 123.28125 C 119.484375 123.042969 118.894531 122.832031 118.296875 122.652344 C 117.699219 122.46875 117.09375 122.316406 116.480469 122.195312 C 115.867188 122.074219 115.246094 121.980469 114.625 121.917969 C 114.003906 121.859375 113.378906 121.828125 112.753906 121.828125 C 112.128906 121.828125 111.503906 121.859375 110.882812 121.917969 C 110.257812 121.980469 109.640625 122.070312 109.027344 122.195312 C 108.414062 122.316406 107.808594 122.46875 107.207031 122.648438 C 106.609375 122.832031 106.023438 123.039062 105.445312 123.28125 C 104.867188 123.519531 104.300781 123.785156 103.75 124.082031 C 103.199219 124.375 102.660156 124.695312 102.140625 125.042969 C 101.621094 125.390625 101.121094 125.761719 100.636719 126.160156 C 100.152344 126.558594 99.6875 126.976562 99.246094 127.417969 C 98.804688 127.859375 98.386719 128.324219 97.988281 128.808594 C 97.589844 129.289062 97.21875 129.792969 96.871094 130.3125 C 96.523438 130.832031 96.203125 131.367188 95.90625 131.917969 C 95.613281 132.46875 95.34375 133.035156 95.105469 133.613281 C 94.867188 134.191406 94.65625 134.777344 94.472656 135.378906 C 94.292969 135.976562 94.140625 136.582031 94.015625 137.195312 C 93.894531 137.808594 93.800781 138.425781 93.742188 139.046875 C 93.679688 139.671875 93.648438 140.296875 93.648438 140.921875 C 93.648438 141.546875 93.679688 142.171875 93.742188 142.792969 C 93.804688 143.414062 93.898438 144.035156 94.019531 144.648438 C 94.140625 145.261719 94.292969 145.867188 94.476562 146.464844 C 94.660156 147.0625 94.871094 147.652344 95.109375 148.230469 C 95.347656 148.808594 95.617188 149.371094 95.910156 149.925781 C 96.207031 150.476562 96.527344 151.011719 96.875 151.53125 C 97.222656 152.050781 97.597656 152.554688 97.992188 153.039062 C 98.390625 153.519531 98.808594 153.984375 99.253906 154.425781 C 99.695312 154.867188 100.15625 155.289062 100.640625 155.683594 C 101.125 156.082031 101.628906 156.453125 102.148438 156.800781 C 102.667969 157.148438 103.203125 157.472656 103.753906 157.765625 C 104.304688 158.0625 104.871094 158.328125 105.449219 158.570312 C 106.027344 158.808594 106.617188 159.019531 107.214844 159.203125 C 107.8125 159.382812 108.417969 159.535156 109.03125 159.660156 C 109.644531 159.78125 110.261719 159.875 110.886719 159.9375 C 111.507812 159.996094 112.132812 160.03125 112.757812 160.03125 Z M 112.757812 160.03125 " fill-opacity="1" fill-rule="evenodd"/><path fill="#fa2d2d" d="M 112.757812 225.113281 C 113.382812 225.113281 114.007812 225.082031 114.628906 225.019531 C 115.253906 224.957031 115.871094 224.867188 116.484375 224.742188 C 117.097656 224.621094 117.703125 224.46875 118.300781 224.285156 C 118.898438 224.105469 119.484375 223.894531 120.0625 223.652344 C 120.640625 223.414062 121.203125 223.148438 121.757812 222.851562 C 122.308594 222.554688 122.84375 222.234375 123.363281 221.886719 C 123.882812 221.539062 124.382812 221.167969 124.867188 220.769531 C 125.347656 220.371094 125.8125 219.953125 126.253906 219.511719 C 126.695312 219.066406 127.113281 218.605469 127.511719 218.121094 C 127.90625 217.636719 128.277344 217.136719 128.625 216.617188 C 128.972656 216.097656 129.292969 215.558594 129.585938 215.007812 C 129.882812 214.457031 130.148438 213.894531 130.386719 213.316406 C 130.625 212.738281 130.835938 212.148438 131.015625 211.550781 C 131.199219 210.953125 131.347656 210.347656 131.46875 209.734375 C 131.59375 209.121094 131.683594 208.503906 131.746094 207.878906 C 131.804688 207.257812 131.835938 206.632812 131.835938 206.007812 C 131.835938 205.382812 131.804688 204.761719 131.742188 204.136719 C 131.679688 203.515625 131.589844 202.898438 131.464844 202.285156 C 131.34375 201.671875 131.191406 201.066406 131.007812 200.46875 C 130.828125 199.871094 130.617188 199.28125 130.378906 198.703125 C 130.136719 198.128906 129.871094 197.5625 129.574219 197.011719 C 129.28125 196.460938 128.960938 195.925781 128.613281 195.40625 C 128.265625 194.886719 127.890625 194.382812 127.496094 193.902344 C 127.097656 193.417969 126.679688 192.957031 126.238281 192.515625 C 125.792969 192.070312 125.332031 191.652344 124.847656 191.257812 C 124.363281 190.859375 123.863281 190.488281 123.34375 190.140625 C 122.824219 189.792969 122.285156 189.472656 121.734375 189.179688 C 121.183594 188.882812 120.621094 188.617188 120.042969 188.378906 C 119.464844 188.140625 118.875 187.929688 118.277344 187.75 C 117.679688 187.566406 117.074219 187.414062 116.460938 187.292969 C 115.847656 187.171875 115.230469 187.082031 114.605469 187.019531 C 113.984375 186.957031 113.359375 186.929688 112.734375 186.929688 C 112.109375 186.929688 111.488281 186.960938 110.863281 187.019531 C 110.242188 187.082031 109.625 187.175781 109.011719 187.296875 C 108.398438 187.417969 107.792969 187.570312 107.195312 187.75 C 106.597656 187.933594 106.007812 188.144531 105.429688 188.382812 C 104.851562 188.621094 104.289062 188.890625 103.738281 189.183594 C 103.1875 189.480469 102.652344 189.800781 102.128906 190.148438 C 101.609375 190.496094 101.109375 190.867188 100.625 191.265625 C 100.144531 191.660156 99.679688 192.082031 99.238281 192.523438 C 98.796875 192.964844 98.378906 193.425781 97.980469 193.910156 C 97.585938 194.394531 97.210938 194.894531 96.863281 195.414062 C 96.515625 195.933594 96.195312 196.472656 95.902344 197.023438 C 95.605469 197.574219 95.339844 198.136719 95.101562 198.714844 C 94.863281 199.292969 94.652344 199.882812 94.46875 200.480469 C 94.289062 201.078125 94.136719 201.683594 94.015625 202.296875 C 93.894531 202.910156 93.800781 203.527344 93.738281 204.148438 C 93.679688 204.773438 93.648438 205.394531 93.648438 206.019531 C 93.648438 206.644531 93.679688 207.269531 93.742188 207.890625 C 93.804688 208.515625 93.898438 209.132812 94.023438 209.746094 C 94.144531 210.359375 94.296875 210.964844 94.480469 211.5625 C 94.660156 212.160156 94.875 212.746094 95.113281 213.324219 C 95.351562 213.902344 95.621094 214.46875 95.917969 215.019531 C 96.210938 215.570312 96.53125 216.105469 96.882812 216.625 C 97.230469 217.144531 97.601562 217.644531 98 218.128906 C 98.394531 218.613281 98.816406 219.074219 99.257812 219.515625 C 99.699219 219.957031 100.164062 220.378906 100.644531 220.773438 C 101.128906 221.171875 101.632812 221.542969 102.152344 221.890625 C 102.671875 222.238281 103.207031 222.558594 103.757812 222.851562 C 104.308594 223.148438 104.875 223.414062 105.453125 223.65625 C 106.03125 223.894531 106.617188 224.105469 107.214844 224.285156 C 107.816406 224.46875 108.421875 224.621094 109.035156 224.742188 C 109.648438 224.867188 110.265625 224.957031 110.886719 225.019531 C 111.507812 225.082031 112.132812 225.113281 112.757812 225.113281 Z M 112.757812 225.113281 " fill-opacity="1" fill-rule="evenodd"/><path fill="#009933" d="M 112.757812 290.214844 C 113.386719 290.214844 114.007812 290.183594 114.632812 290.121094 C 115.253906 290.058594 115.871094 289.96875 116.484375 289.84375 C 117.097656 289.722656 117.707031 289.570312 118.304688 289.386719 C 118.902344 289.207031 119.492188 288.996094 120.070312 288.753906 C 120.648438 288.515625 121.210938 288.25 121.761719 287.953125 C 122.316406 287.660156 122.851562 287.335938 123.371094 286.988281 C 123.890625 286.640625 124.390625 286.269531 124.875 285.871094 C 125.359375 285.476562 125.820312 285.054688 126.265625 284.613281 C 126.707031 284.167969 127.125 283.707031 127.523438 283.222656 C 127.917969 282.738281 128.289062 282.238281 128.636719 281.714844 C 128.984375 281.195312 129.304688 280.660156 129.601562 280.109375 C 129.894531 279.554688 130.164062 278.992188 130.402344 278.414062 C 130.640625 277.835938 130.851562 277.246094 131.03125 276.648438 C 131.214844 276.050781 131.367188 275.445312 131.488281 274.828125 C 131.609375 274.214844 131.699219 273.597656 131.761719 272.976562 C 131.824219 272.351562 131.851562 271.730469 131.851562 271.101562 C 131.851562 270.476562 131.820312 269.851562 131.757812 269.230469 C 131.699219 268.609375 131.605469 267.992188 131.484375 267.375 C 131.363281 266.761719 131.210938 266.15625 131.027344 265.558594 C 130.84375 264.960938 130.636719 264.371094 130.394531 263.792969 C 130.15625 263.214844 129.886719 262.652344 129.59375 262.101562 C 129.296875 261.546875 128.976562 261.011719 128.628906 260.492188 C 128.28125 259.972656 127.90625 259.472656 127.511719 258.988281 C 127.113281 258.503906 126.695312 258.042969 126.25 257.597656 C 125.808594 257.15625 125.34375 256.738281 124.863281 256.339844 C 124.378906 255.945312 123.875 255.570312 123.355469 255.226562 C 122.835938 254.878906 122.300781 254.554688 121.746094 254.261719 C 121.195312 253.96875 120.628906 253.699219 120.050781 253.460938 C 119.472656 253.222656 118.886719 253.011719 118.285156 252.832031 C 117.6875 252.648438 117.082031 252.496094 116.46875 252.375 C 115.855469 252.253906 115.238281 252.164062 114.613281 252.101562 C 113.992188 252.039062 113.367188 252.011719 112.742188 252.011719 C 112.117188 252.011719 111.492188 252.042969 110.871094 252.101562 C 110.246094 252.164062 109.628906 252.257812 109.015625 252.378906 C 108.402344 252.5 107.796875 252.652344 107.195312 252.835938 C 106.597656 253.015625 106.011719 253.226562 105.433594 253.46875 C 104.855469 253.707031 104.289062 253.976562 103.738281 254.269531 C 103.1875 254.566406 102.652344 254.886719 102.128906 255.234375 C 101.609375 255.582031 101.109375 255.953125 100.625 256.351562 C 100.140625 256.75 99.679688 257.167969 99.238281 257.613281 C 98.792969 258.054688 98.375 258.515625 97.980469 259 C 97.582031 259.484375 97.210938 259.988281 96.863281 260.507812 C 96.515625 261.027344 96.195312 261.5625 95.898438 262.117188 C 95.605469 262.667969 95.339844 263.230469 95.097656 263.808594 C 94.859375 264.386719 94.648438 264.976562 94.46875 265.574219 C 94.285156 266.175781 94.136719 266.78125 94.011719 267.394531 C 93.890625 268.007812 93.800781 268.625 93.738281 269.25 C 93.679688 269.871094 93.648438 270.496094 93.648438 271.121094 C 93.648438 271.746094 93.679688 272.371094 93.742188 272.992188 C 93.804688 273.613281 93.898438 274.230469 94.023438 274.84375 C 94.144531 275.457031 94.296875 276.0625 94.480469 276.660156 C 94.660156 277.261719 94.875 277.847656 95.113281 278.425781 C 95.351562 279.003906 95.621094 279.566406 95.917969 280.117188 C 96.210938 280.667969 96.53125 281.203125 96.882812 281.722656 C 97.230469 282.246094 97.601562 282.746094 98 283.230469 C 98.394531 283.710938 98.816406 284.175781 99.257812 284.617188 C 99.699219 285.058594 100.164062 285.476562 100.644531 285.875 C 101.128906 286.269531 101.632812 286.644531 102.152344 286.988281 C 102.671875 287.335938 103.207031 287.660156 103.757812 287.953125 C 104.308594 288.25 104.875 288.515625 105.453125 288.753906 C 106.03125 288.996094 106.617188 289.203125 107.214844 289.386719 C 107.816406 289.570312 108.421875 289.722656 109.035156 289.84375 C 109.648438 289.964844 110.265625 290.058594 110.886719 290.121094 C 111.507812 290.179688 112.132812 290.210938 112.757812 290.214844 Z M 112.757812 290.214844 " fill-opacity="1" fill-rule="evenodd"/><path fill="#384868" d="M 149.144531 291.191406 C 148.867188 291.191406 148.59375 291.164062 148.320312 291.109375 C 148.046875 291.054688 147.78125 290.972656 147.527344 290.867188 C 147.269531 290.761719 147.027344 290.628906 146.792969 290.472656 C 146.5625 290.320312 146.351562 290.144531 146.152344 289.949219 C 145.957031 289.75 145.78125 289.535156 145.628906 289.304688 C 145.472656 289.074219 145.34375 288.832031 145.238281 288.574219 C 145.132812 288.316406 145.050781 288.050781 144.996094 287.78125 C 144.941406 287.507812 144.914062 287.230469 144.914062 286.953125 C 144.914062 286.675781 144.941406 286.398438 144.996094 286.128906 C 145.050781 285.855469 145.132812 285.589844 145.238281 285.332031 C 145.34375 285.078125 145.472656 284.832031 145.628906 284.601562 C 145.78125 284.371094 145.957031 284.15625 146.152344 283.960938 C 146.351562 283.761719 146.5625 283.585938 146.792969 283.433594 C 147.027344 283.277344 147.269531 283.148438 147.527344 283.039062 C 147.78125 282.933594 148.046875 282.851562 148.320312 282.796875 C 148.59375 282.742188 148.867188 282.714844 149.144531 282.714844 L 186.289062 282.714844 C 186.566406 282.714844 186.839844 282.742188 187.113281 282.796875 C 187.386719 282.851562 187.652344 282.933594 187.90625 283.039062 C 188.164062 283.148438 188.40625 283.277344 188.636719 283.433594 C 188.871094 283.585938 189.082031 283.761719 189.277344 283.960938 C 189.476562 284.15625 189.652344 284.371094 189.804688 284.601562 C 189.960938 284.832031 190.089844 285.078125 190.195312 285.332031 C 190.300781 285.589844 190.382812 285.855469 190.4375 286.128906 C 190.492188 286.398438 190.519531 286.675781 190.519531 286.953125 C 190.519531 287.230469 190.492188 287.507812 190.4375 287.777344 C 190.382812 288.050781 190.300781 288.316406 190.195312 288.574219 C 190.089844 288.832031 189.960938 289.074219 189.804688 289.304688 C 189.652344 289.535156 189.476562 289.75 189.277344 289.949219 C 189.082031 290.144531 188.871094 290.320312 188.636719 290.472656 C 188.40625 290.628906 188.164062 290.761719 187.90625 290.867188 C 187.652344 290.972656 187.386719 291.054688 187.113281 291.109375 C 186.839844 291.164062 186.566406 291.191406 186.289062 291.191406 Z M 149.144531 129.324219 C 148.867188 129.324219 148.589844 129.296875 148.320312 129.246094 C 148.046875 129.191406 147.78125 129.109375 147.523438 129.003906 C 147.265625 128.898438 147.023438 128.765625 146.789062 128.613281 C 146.558594 128.457031 146.34375 128.28125 146.148438 128.085938 C 145.953125 127.886719 145.777344 127.671875 145.621094 127.441406 C 145.46875 127.210938 145.335938 126.964844 145.230469 126.710938 C 145.125 126.453125 145.042969 126.1875 144.988281 125.914062 C 144.933594 125.640625 144.90625 125.367188 144.90625 125.085938 C 144.90625 124.808594 144.933594 124.535156 144.988281 124.261719 C 145.042969 123.988281 145.125 123.722656 145.230469 123.464844 C 145.335938 123.207031 145.46875 122.964844 145.621094 122.734375 C 145.777344 122.503906 145.953125 122.289062 146.148438 122.089844 C 146.34375 121.894531 146.558594 121.71875 146.789062 121.5625 C 147.023438 121.410156 147.265625 121.277344 147.523438 121.171875 C 147.78125 121.066406 148.046875 120.984375 148.320312 120.929688 C 148.589844 120.878906 148.867188 120.851562 149.144531 120.851562 L 186.289062 120.851562 C 186.566406 120.851562 186.839844 120.878906 187.113281 120.929688 C 187.386719 120.984375 187.652344 121.066406 187.910156 121.171875 C 188.167969 121.277344 188.410156 121.410156 188.640625 121.5625 C 188.875 121.71875 189.085938 121.894531 189.285156 122.089844 C 189.480469 122.289062 189.65625 122.503906 189.8125 122.734375 C 189.964844 122.964844 190.097656 123.207031 190.203125 123.464844 C 190.308594 123.722656 190.390625 123.988281 190.445312 124.261719 C 190.5 124.535156 190.527344 124.808594 190.527344 125.085938 C 190.527344 125.367188 190.5 125.640625 190.445312 125.914062 C 190.390625 126.1875 190.308594 126.453125 190.203125 126.710938 C 190.097656 126.964844 189.964844 127.210938 189.8125 127.441406 C 189.65625 127.671875 189.480469 127.886719 189.285156 128.085938 C 189.085938 128.28125 188.875 128.457031 188.640625 128.613281 C 188.410156 128.765625 188.167969 128.898438 187.910156 129.003906 C 187.652344 129.109375 187.386719 129.191406 187.113281 129.246094 C 186.839844 129.296875 186.566406 129.324219 186.289062 129.324219 Z M 149.144531 145.160156 C 148.867188 145.160156 148.589844 145.132812 148.320312 145.078125 C 148.046875 145.023438 147.78125 144.941406 147.523438 144.835938 C 147.265625 144.730469 147.023438 144.597656 146.789062 144.445312 C 146.558594 144.289062 146.34375 144.113281 146.148438 143.917969 C 145.953125 143.722656 145.777344 143.507812 145.621094 143.277344 C 145.46875 143.042969 145.335938 142.800781 145.230469 142.542969 C 145.125 142.285156 145.042969 142.019531 144.988281 141.746094 C 144.933594 141.476562 144.90625 141.199219 144.90625 140.921875 C 144.90625 140.644531 144.933594 140.367188 144.988281 140.09375 C 145.042969 139.820312 145.125 139.554688 145.230469 139.300781 C 145.335938 139.042969 145.46875 138.796875 145.621094 138.566406 C 145.777344 138.335938 145.953125 138.121094 146.148438 137.925781 C 146.34375 137.726562 146.558594 137.550781 146.789062 137.398438 C 147.023438 137.242188 147.265625 137.113281 147.523438 137.007812 C 147.78125 136.898438 148.046875 136.820312 148.320312 136.765625 C 148.589844 136.710938 148.867188 136.683594 149.144531 136.683594 L 219.207031 136.683594 C 219.484375 136.683594 219.757812 136.710938 220.03125 136.765625 C 220.304688 136.820312 220.570312 136.898438 220.828125 137.007812 C 221.085938 137.113281 221.328125 137.242188 221.558594 137.398438 C 221.792969 137.550781 222.003906 137.726562 222.203125 137.925781 C 222.398438 138.121094 222.574219 138.335938 222.730469 138.566406 C 222.882812 138.796875 223.015625 139.042969 223.121094 139.300781 C 223.226562 139.554688 223.308594 139.820312 223.363281 140.09375 C 223.417969 140.367188 223.445312 140.644531 223.445312 140.921875 C 223.445312 141.199219 223.417969 141.476562 223.363281 141.746094 C 223.308594 142.019531 223.226562 142.285156 223.121094 142.542969 C 223.015625 142.800781 222.882812 143.042969 222.730469 143.277344 C 222.574219 143.507812 222.398438 143.722656 222.203125 143.917969 C 222.003906 144.113281 221.792969 144.289062 221.558594 144.445312 C 221.328125 144.597656 221.085938 144.730469 220.828125 144.835938 C 220.570312 144.941406 220.304688 145.023438 220.03125 145.078125 C 219.757812 145.132812 219.484375 145.160156 219.207031 145.160156 Z M 149.144531 161.007812 C 148.867188 161.007812 148.589844 160.984375 148.320312 160.929688 C 148.046875 160.875 147.78125 160.792969 147.523438 160.6875 C 147.265625 160.582031 147.023438 160.449219 146.789062 160.296875 C 146.558594 160.140625 146.34375 159.964844 146.148438 159.769531 C 145.953125 159.570312 145.777344 159.359375 145.621094 159.125 C 145.46875 158.894531 145.335938 158.652344 145.230469 158.394531 C 145.125 158.136719 145.042969 157.871094 144.988281 157.597656 C 144.933594 157.324219 144.90625 157.050781 144.90625 156.773438 C 144.90625 156.492188 144.933594 156.21875 144.988281 155.945312 C 145.042969 155.671875 145.125 155.40625 145.230469 155.148438 C 145.335938 154.894531 145.46875 154.648438 145.621094 154.417969 C 145.777344 154.1875 145.953125 153.972656 146.148438 153.773438 C 146.34375 153.578125 146.558594 153.402344 146.789062 153.246094 C 147.023438 153.09375 147.265625 152.960938 147.523438 152.855469 C 147.78125 152.75 148.046875 152.667969 148.320312 152.613281 C 148.589844 152.5625 148.867188 152.535156 149.144531 152.535156 L 219.207031 152.535156 C 219.484375 152.535156 219.757812 152.5625 220.03125 152.613281 C 220.304688 152.667969 220.570312 152.75 220.828125 152.855469 C 221.085938 152.960938 221.328125 153.09375 221.558594 153.246094 C 221.792969 153.402344 222.003906 153.578125 222.203125 153.773438 C 222.398438 153.972656 222.574219 154.1875 222.730469 154.417969 C 222.882812 154.648438 223.015625 154.894531 223.121094 155.148438 C 223.226562 155.40625 223.308594 155.671875 223.363281 155.945312 C 223.417969 156.21875 223.445312 156.492188 223.445312 156.773438 C 223.445312 157.050781 223.417969 157.324219 223.363281 157.597656 C 223.308594 157.871094 223.226562 158.136719 223.121094 158.394531 C 223.015625 158.652344 222.882812 158.894531 222.730469 159.125 C 222.574219 159.359375 222.398438 159.570312 222.203125 159.769531 C 222.003906 159.964844 221.792969 160.140625 221.558594 160.296875 C 221.328125 160.449219 221.085938 160.582031 220.828125 160.6875 C 220.570312 160.792969 220.304688 160.875 220.03125 160.929688 C 219.757812 160.984375 219.484375 161.007812 219.207031 161.007812 Z M 149.144531 194.425781 C 148.867188 194.425781 148.589844 194.398438 148.320312 194.34375 C 148.046875 194.289062 147.78125 194.210938 147.523438 194.105469 C 147.265625 193.996094 147.023438 193.867188 146.789062 193.710938 C 146.558594 193.558594 146.34375 193.382812 146.148438 193.183594 C 145.953125 192.988281 145.777344 192.773438 145.621094 192.542969 C 145.46875 192.3125 145.335938 192.066406 145.230469 191.808594 C 145.125 191.554688 145.042969 191.289062 144.988281 191.015625 C 144.933594 190.742188 144.90625 190.464844 144.90625 190.1875 C 144.90625 189.910156 144.933594 189.632812 144.988281 189.363281 C 145.042969 189.089844 145.125 188.824219 145.230469 188.566406 C 145.335938 188.308594 145.46875 188.066406 145.621094 187.832031 C 145.777344 187.601562 145.953125 187.386719 146.148438 187.191406 C 146.34375 186.996094 146.558594 186.820312 146.789062 186.664062 C 147.023438 186.511719 147.265625 186.378906 147.523438 186.273438 C 147.78125 186.167969 148.046875 186.085938 148.320312 186.03125 C 148.589844 185.976562 148.867188 185.949219 149.144531 185.949219 L 186.289062 185.949219 C 186.566406 185.949219 186.839844 185.976562 187.113281 186.03125 C 187.386719 186.085938 187.652344 186.167969 187.910156 186.273438 C 188.167969 186.378906 188.410156 186.511719 188.640625 186.664062 C 188.875 186.820312 189.085938 186.996094 189.285156 187.191406 C 189.480469 187.386719 189.65625 187.601562 189.8125 187.832031 C 189.964844 188.066406 190.097656 188.308594 190.203125 188.566406 C 190.308594 188.824219 190.390625 189.089844 190.445312 189.363281 C 190.5 189.632812 190.527344 189.910156 190.527344 190.1875 C 190.527344 190.464844 190.5 190.742188 190.445312 191.015625 C 190.390625 191.289062 190.308594 191.554688 190.203125 191.808594 C 190.097656 192.066406 189.964844 192.3125 189.8125 192.542969 C 189.65625 192.773438 189.480469 192.988281 189.285156 193.183594 C 189.085938 193.382812 188.875 193.558594 188.640625 193.710938 C 188.410156 193.867188 188.167969 193.996094 187.910156 194.105469 C 187.652344 194.210938 187.386719 194.289062 187.113281 194.34375 C 186.839844 194.398438 186.566406 194.425781 186.289062 194.425781 Z M 149.144531 210.261719 C 148.867188 210.261719 148.589844 210.234375 148.320312 210.179688 C 148.046875 210.125 147.78125 210.042969 147.523438 209.9375 C 147.265625 209.832031 147.023438 209.699219 146.789062 209.546875 C 146.558594 209.390625 146.34375 209.214844 146.148438 209.019531 C 145.953125 208.820312 145.777344 208.609375 145.621094 208.375 C 145.46875 208.144531 145.335938 207.902344 145.230469 207.644531 C 145.125 207.386719 145.042969 207.121094 144.988281 206.847656 C 144.933594 206.574219 144.90625 206.300781 144.90625 206.023438 C 144.90625 205.742188 144.933594 205.46875 144.988281 205.195312 C 145.042969 204.921875 145.125 204.65625 145.230469 204.398438 C 145.335938 204.144531 145.46875 203.898438 145.621094 203.667969 C 145.777344 203.4375 145.953125 203.222656 146.148438 203.023438 C 146.34375 202.828125 146.558594 202.652344 146.789062 202.5 C 147.023438 202.34375 147.265625 202.214844 147.523438 202.105469 C 147.78125 202 148.046875 201.917969 148.320312 201.867188 C 148.589844 201.8125 148.867188 201.785156 149.144531 201.785156 L 204.914062 201.785156 C 205.195312 201.785156 205.46875 201.8125 205.742188 201.867188 C 206.015625 201.917969 206.28125 202 206.539062 202.105469 C 206.792969 202.214844 207.039062 202.34375 207.269531 202.5 C 207.5 202.652344 207.714844 202.828125 207.914062 203.023438 C 208.109375 203.222656 208.285156 203.4375 208.4375 203.667969 C 208.59375 203.898438 208.722656 204.144531 208.832031 204.398438 C 208.9375 204.65625 209.019531 204.921875 209.070312 205.195312 C 209.125 205.46875 209.152344 205.742188 209.152344 206.023438 C 209.152344 206.300781 209.125 206.574219 209.070312 206.847656 C 209.019531 207.121094 208.9375 207.386719 208.832031 207.644531 C 208.722656 207.902344 208.59375 208.144531 208.4375 208.375 C 208.285156 208.609375 208.109375 208.820312 207.914062 209.019531 C 207.714844 209.214844 207.5 209.390625 207.269531 209.546875 C 207.039062 209.699219 206.792969 209.832031 206.539062 209.9375 C 206.28125 210.042969 206.015625 210.125 205.742188 210.179688 C 205.46875 210.234375 205.195312 210.261719 204.914062 210.261719 Z M 149.144531 226.09375 C 148.867188 226.09375 148.589844 226.066406 148.320312 226.011719 C 148.046875 225.957031 147.78125 225.878906 147.523438 225.769531 C 147.265625 225.664062 147.023438 225.535156 146.789062 225.378906 C 146.558594 225.222656 146.34375 225.046875 146.148438 224.851562 C 145.953125 224.65625 145.777344 224.441406 145.621094 224.210938 C 145.46875 223.976562 145.335938 223.734375 145.230469 223.476562 C 145.125 223.21875 145.042969 222.953125 144.988281 222.683594 C 144.933594 222.410156 144.90625 222.132812 144.90625 221.855469 C 144.90625 221.578125 144.933594 221.300781 144.988281 221.027344 C 145.042969 220.753906 145.125 220.492188 145.230469 220.234375 C 145.335938 219.976562 145.46875 219.730469 145.621094 219.5 C 145.777344 219.269531 145.953125 219.054688 146.148438 218.859375 C 146.34375 218.660156 146.558594 218.484375 146.789062 218.332031 C 147.023438 218.175781 147.265625 218.046875 147.523438 217.941406 C 147.78125 217.832031 148.046875 217.753906 148.320312 217.699219 C 148.589844 217.644531 148.867188 217.617188 149.144531 217.617188 L 204.914062 217.617188 C 205.195312 217.617188 205.46875 217.644531 205.742188 217.699219 C 206.015625 217.753906 206.28125 217.832031 206.539062 217.941406 C 206.792969 218.046875 207.039062 218.175781 207.269531 218.332031 C 207.5 218.484375 207.714844 218.660156 207.914062 218.859375 C 208.109375 219.054688 208.285156 219.269531 208.4375 219.5 C 208.59375 219.730469 208.722656 219.976562 208.832031 220.234375 C 208.9375 220.492188 209.019531 220.753906 209.070312 221.027344 C 209.125 221.300781 209.152344 221.578125 209.152344 221.855469 C 209.152344 222.132812 209.125 222.410156 209.070312 222.683594 C 209.019531 222.953125 208.9375 223.21875 208.832031 223.476562 C 208.722656 223.734375 208.59375 223.976562 208.4375 224.210938 C 208.285156 224.441406 208.109375 224.65625 207.914062 224.851562 C 207.714844 225.046875 207.5 225.222656 207.269531 225.378906 C 207.039062 225.535156 206.792969 225.664062 206.539062 225.769531 C 206.28125 225.878906 206.015625 225.957031 205.742188 226.011719 C 205.46875 226.066406 205.195312 226.09375 204.914062 226.09375 Z M 149.144531 259.511719 C 148.867188 259.507812 148.59375 259.480469 148.320312 259.425781 C 148.046875 259.371094 147.78125 259.292969 147.527344 259.183594 C 147.269531 259.078125 147.027344 258.949219 146.792969 258.792969 C 146.5625 258.636719 146.351562 258.460938 146.152344 258.265625 C 145.957031 258.070312 145.78125 257.855469 145.628906 257.625 C 145.472656 257.394531 145.34375 257.148438 145.238281 256.890625 C 145.132812 256.636719 145.050781 256.371094 144.996094 256.097656 C 144.941406 255.824219 144.914062 255.550781 144.914062 255.273438 C 144.914062 254.992188 144.941406 254.71875 144.996094 254.445312 C 145.050781 254.171875 145.132812 253.910156 145.238281 253.652344 C 145.34375 253.394531 145.472656 253.152344 145.628906 252.921875 C 145.78125 252.6875 145.957031 252.476562 146.152344 252.277344 C 146.351562 252.082031 146.5625 251.90625 146.792969 251.75 C 147.027344 251.597656 147.269531 251.464844 147.527344 251.359375 C 147.78125 251.253906 148.046875 251.171875 148.320312 251.117188 C 148.59375 251.0625 148.867188 251.035156 149.144531 251.035156 L 186.289062 251.035156 C 186.566406 251.035156 186.84375 251.058594 187.117188 251.113281 C 187.390625 251.167969 187.65625 251.25 187.914062 251.355469 C 188.167969 251.460938 188.414062 251.589844 188.644531 251.746094 C 188.878906 251.898438 189.09375 252.074219 189.289062 252.273438 C 189.488281 252.46875 189.664062 252.683594 189.816406 252.914062 C 189.972656 253.148438 190.105469 253.390625 190.210938 253.648438 C 190.316406 253.90625 190.398438 254.171875 190.453125 254.445312 C 190.507812 254.71875 190.535156 254.992188 190.535156 255.273438 C 190.535156 255.550781 190.507812 255.828125 190.453125 256.101562 C 190.398438 256.375 190.316406 256.636719 190.210938 256.894531 C 190.105469 257.152344 189.972656 257.398438 189.816406 257.628906 C 189.664062 257.859375 189.488281 258.074219 189.289062 258.273438 C 189.09375 258.46875 188.878906 258.644531 188.644531 258.796875 C 188.414062 258.953125 188.167969 259.082031 187.914062 259.191406 C 187.65625 259.296875 187.390625 259.375 187.117188 259.429688 C 186.84375 259.484375 186.566406 259.511719 186.289062 259.511719 Z M 149.144531 275.359375 C 148.867188 275.359375 148.589844 275.332031 148.320312 275.277344 C 148.046875 275.226562 147.78125 275.144531 147.523438 275.039062 C 147.265625 274.929688 147.023438 274.800781 146.789062 274.644531 C 146.558594 274.492188 146.34375 274.316406 146.148438 274.121094 C 145.953125 273.921875 145.777344 273.707031 145.621094 273.476562 C 145.46875 273.246094 145.335938 273 145.230469 272.746094 C 145.125 272.488281 145.042969 272.222656 144.988281 271.949219 C 144.933594 271.675781 144.90625 271.402344 144.90625 271.121094 C 144.90625 270.84375 144.933594 270.570312 144.988281 270.296875 C 145.042969 270.023438 145.125 269.757812 145.230469 269.5 C 145.335938 269.242188 145.46875 269 145.621094 268.769531 C 145.777344 268.535156 145.953125 268.324219 146.148438 268.125 C 146.34375 267.929688 146.558594 267.753906 146.789062 267.597656 C 147.023438 267.445312 147.265625 267.3125 147.523438 267.207031 C 147.78125 267.101562 148.046875 267.019531 148.320312 266.964844 C 148.589844 266.910156 148.867188 266.882812 149.144531 266.882812 L 186.289062 266.882812 C 186.566406 266.882812 186.839844 266.910156 187.113281 266.964844 C 187.386719 267.019531 187.652344 267.101562 187.910156 267.207031 C 188.167969 267.3125 188.410156 267.445312 188.640625 267.597656 C 188.875 267.753906 189.085938 267.929688 189.285156 268.125 C 189.480469 268.324219 189.65625 268.535156 189.8125 268.769531 C 189.964844 269 190.097656 269.242188 190.203125 269.5 C 190.308594 269.757812 190.390625 270.023438 190.445312 270.296875 C 190.5 270.570312 190.527344 270.84375 190.527344 271.121094 C 190.527344 271.402344 190.5 271.675781 190.445312 271.949219 C 190.390625 272.222656 190.308594 272.488281 190.203125 272.746094 C 190.097656 273 189.964844 273.246094 189.8125 273.476562 C 189.65625 273.707031 189.480469 273.921875 189.285156 274.121094 C 189.085938 274.316406 188.875 274.492188 188.640625 274.644531 C 188.410156 274.800781 188.167969 274.929688 187.910156 275.039062 C 187.652344 275.144531 187.386719 275.226562 187.113281 275.277344 C 186.839844 275.332031 186.566406 275.359375 186.289062 275.359375 Z M 149.144531 275.359375 " fill-opacity="1" fill-rule="nonzero"/><path fill="#e1edf7" d="M 156.402344 55.441406 C 156.125 55.441406 155.847656 55.414062 155.578125 55.359375 C 155.304688 55.304688 155.039062 55.226562 154.78125 55.121094 C 154.527344 55.011719 154.28125 54.882812 154.050781 54.730469 C 153.820312 54.574219 153.609375 54.398438 153.410156 54.203125 C 153.214844 54.007812 153.039062 53.792969 152.886719 53.5625 C 152.730469 53.332031 152.601562 53.085938 152.496094 52.832031 C 152.386719 52.574219 152.308594 52.308594 152.253906 52.039062 C 152.199219 51.765625 152.171875 51.492188 152.171875 51.214844 C 152.171875 50.933594 152.199219 50.660156 152.253906 50.386719 C 152.308594 50.117188 152.386719 49.851562 152.496094 49.59375 C 152.601562 49.339844 152.730469 49.09375 152.886719 48.863281 C 153.039062 48.632812 153.214844 48.417969 153.410156 48.222656 C 153.609375 48.027344 153.820312 47.851562 154.050781 47.695312 C 154.28125 47.542969 154.527344 47.414062 154.78125 47.304688 C 155.039062 47.199219 155.304688 47.121094 155.578125 47.066406 C 155.847656 47.011719 156.125 46.984375 156.402344 46.984375 L 156.46875 46.984375 C 156.746094 46.984375 157.023438 47.011719 157.296875 47.066406 C 157.566406 47.121094 157.832031 47.199219 158.089844 47.304688 C 158.34375 47.414062 158.589844 47.542969 158.820312 47.695312 C 159.050781 47.851562 159.265625 48.027344 159.460938 48.222656 C 159.65625 48.417969 159.832031 48.632812 159.984375 48.863281 C 160.140625 49.09375 160.269531 49.339844 160.378906 49.59375 C 160.484375 49.851562 160.5625 50.117188 160.617188 50.386719 C 160.671875 50.660156 160.699219 50.933594 160.699219 51.214844 C 160.699219 51.492188 160.671875 51.765625 160.617188 52.039062 C 160.5625 52.308594 160.484375 52.574219 160.378906 52.832031 C 160.269531 53.085938 160.140625 53.332031 159.984375 53.5625 C 159.832031 53.792969 159.65625 54.007812 159.460938 54.203125 C 159.265625 54.398438 159.050781 54.574219 158.820312 54.730469 C 158.589844 54.882812 158.34375 55.011719 158.089844 55.121094 C 157.832031 55.226562 157.566406 55.304688 157.296875 55.359375 C 157.023438 55.414062 156.746094 55.441406 156.46875 55.441406 Z M 156.402344 55.441406 " fill-opacity="1" fill-rule="nonzero"/><path fill="#e1edf7" d="M 117.21875 132.722656 C 117.417969 132.523438 117.628906 132.351562 117.863281 132.195312 C 118.09375 132.042969 118.335938 131.914062 118.59375 131.804688 C 118.851562 131.699219 119.113281 131.621094 119.386719 131.566406 C 119.660156 131.511719 119.933594 131.484375 120.210938 131.484375 C 120.488281 131.488281 120.765625 131.515625 121.035156 131.566406 C 121.308594 131.621094 121.574219 131.703125 121.828125 131.808594 C 122.085938 131.914062 122.328125 132.046875 122.5625 132.199219 C 122.792969 132.355469 123.003906 132.53125 123.203125 132.726562 C 123.398438 132.921875 123.574219 133.136719 123.726562 133.367188 C 123.882812 133.597656 124.011719 133.839844 124.117188 134.097656 C 124.226562 134.355469 124.304688 134.617188 124.359375 134.890625 C 124.414062 135.164062 124.441406 135.4375 124.441406 135.714844 C 124.441406 135.992188 124.414062 136.269531 124.359375 136.539062 C 124.308594 136.8125 124.226562 137.078125 124.121094 137.335938 C 124.015625 137.589844 123.886719 137.835938 123.730469 138.066406 C 123.578125 138.296875 123.402344 138.511719 123.207031 138.707031 L 112.792969 149.136719 C 112.597656 149.332031 112.382812 149.507812 112.148438 149.660156 C 111.917969 149.816406 111.671875 149.945312 111.414062 150.050781 C 111.15625 150.15625 110.890625 150.238281 110.621094 150.292969 C 110.347656 150.34375 110.070312 150.371094 109.792969 150.371094 C 109.511719 150.371094 109.238281 150.34375 108.964844 150.292969 C 108.691406 150.238281 108.425781 150.15625 108.167969 150.050781 C 107.910156 149.945312 107.667969 149.816406 107.433594 149.660156 C 107.203125 149.507812 106.988281 149.332031 106.789062 149.136719 L 102.296875 144.625 C 102.097656 144.429688 101.921875 144.214844 101.765625 143.984375 C 101.613281 143.753906 101.480469 143.507812 101.375 143.253906 C 101.265625 142.996094 101.1875 142.730469 101.132812 142.457031 C 101.078125 142.183594 101.050781 141.910156 101.046875 141.628906 C 101.046875 141.351562 101.074219 141.078125 101.128906 140.804688 C 101.183594 140.53125 101.261719 140.265625 101.371094 140.007812 C 101.476562 139.75 101.605469 139.507812 101.761719 139.273438 C 101.914062 139.042969 102.089844 138.828125 102.289062 138.632812 C 102.484375 138.433594 102.699219 138.257812 102.929688 138.105469 C 103.164062 137.949219 103.40625 137.820312 103.664062 137.714844 C 103.921875 137.605469 104.1875 137.527344 104.460938 137.472656 C 104.734375 137.417969 105.007812 137.390625 105.289062 137.390625 C 105.566406 137.390625 105.839844 137.417969 106.113281 137.476562 C 106.386719 137.53125 106.652344 137.609375 106.910156 137.71875 C 107.167969 137.824219 107.410156 137.957031 107.640625 138.109375 C 107.871094 138.265625 108.085938 138.441406 108.28125 138.640625 L 109.792969 140.148438 Z M 117.21875 132.722656 " fill-opacity="1" fill-rule="nonzero"/><path fill="#e1edf7" d="M 117.21875 197.820312 C 117.417969 197.625 117.628906 197.449219 117.863281 197.296875 C 118.09375 197.144531 118.335938 197.011719 118.59375 196.90625 C 118.851562 196.800781 119.113281 196.722656 119.386719 196.667969 C 119.660156 196.613281 119.933594 196.589844 120.210938 196.589844 C 120.488281 196.589844 120.761719 196.617188 121.035156 196.671875 C 121.308594 196.726562 121.570312 196.804688 121.828125 196.910156 C 122.085938 197.019531 122.328125 197.148438 122.558594 197.300781 C 122.789062 197.457031 123.003906 197.632812 123.199219 197.828125 C 123.394531 198.023438 123.570312 198.238281 123.726562 198.46875 C 123.878906 198.699219 124.011719 198.941406 124.117188 199.199219 C 124.222656 199.457031 124.304688 199.71875 124.355469 199.992188 C 124.410156 200.265625 124.4375 200.539062 124.4375 200.816406 C 124.441406 201.09375 124.414062 201.367188 124.359375 201.640625 C 124.304688 201.914062 124.226562 202.179688 124.121094 202.433594 C 124.015625 202.691406 123.882812 202.933594 123.730469 203.164062 C 123.578125 203.398438 123.402344 203.609375 123.207031 203.808594 L 112.792969 214.21875 C 112.597656 214.417969 112.382812 214.59375 112.152344 214.75 C 111.917969 214.90625 111.675781 215.035156 111.417969 215.144531 C 111.160156 215.25 110.894531 215.332031 110.621094 215.386719 C 110.347656 215.441406 110.070312 215.46875 109.792969 215.46875 C 109.511719 215.46875 109.238281 215.441406 108.964844 215.386719 C 108.691406 215.332031 108.425781 215.25 108.167969 215.144531 C 107.910156 215.035156 107.664062 214.90625 107.433594 214.75 C 107.199219 214.59375 106.988281 214.417969 106.789062 214.21875 L 102.296875 209.726562 C 102.097656 209.53125 101.921875 209.316406 101.765625 209.085938 C 101.613281 208.851562 101.480469 208.609375 101.375 208.351562 C 101.265625 208.09375 101.1875 207.832031 101.132812 207.558594 C 101.078125 207.285156 101.050781 207.007812 101.050781 206.730469 C 101.050781 206.453125 101.074219 206.175781 101.128906 205.902344 C 101.183594 205.628906 101.265625 205.367188 101.371094 205.109375 C 101.476562 204.851562 101.609375 204.605469 101.761719 204.375 C 101.917969 204.144531 102.09375 203.929688 102.289062 203.734375 C 102.484375 203.535156 102.699219 203.359375 102.933594 203.207031 C 103.164062 203.050781 103.40625 202.921875 103.664062 202.8125 C 103.921875 202.707031 104.1875 202.628906 104.460938 202.574219 C 104.734375 202.519531 105.007812 202.492188 105.289062 202.492188 C 105.566406 202.492188 105.839844 202.519531 106.113281 202.574219 C 106.386719 202.628906 106.652344 202.710938 106.910156 202.816406 C 107.167969 202.925781 107.410156 203.054688 107.640625 203.210938 C 107.871094 203.367188 108.085938 203.542969 108.28125 203.738281 L 109.792969 205.25 Z M 117.21875 197.820312 " fill-opacity="1" fill-rule="nonzero"/><path fill="#e1edf7" d="M 117.21875 262.902344 C 117.417969 262.707031 117.628906 262.53125 117.863281 262.378906 C 118.09375 262.226562 118.335938 262.09375 118.59375 261.988281 C 118.851562 261.882812 119.113281 261.804688 119.386719 261.75 C 119.660156 261.695312 119.933594 261.667969 120.210938 261.667969 C 120.488281 261.667969 120.765625 261.695312 121.035156 261.75 C 121.308594 261.804688 121.574219 261.886719 121.828125 261.992188 C 122.085938 262.097656 122.328125 262.230469 122.5625 262.382812 C 122.792969 262.539062 123.003906 262.710938 123.203125 262.910156 C 123.398438 263.105469 123.574219 263.320312 123.726562 263.550781 C 123.882812 263.78125 124.011719 264.023438 124.117188 264.28125 C 124.226562 264.539062 124.304688 264.800781 124.359375 265.074219 C 124.414062 265.347656 124.441406 265.621094 124.441406 265.898438 C 124.441406 266.175781 124.414062 266.453125 124.359375 266.722656 C 124.308594 266.996094 124.226562 267.261719 124.121094 267.515625 C 124.015625 267.773438 123.886719 268.019531 123.730469 268.25 C 123.578125 268.480469 123.402344 268.695312 123.207031 268.890625 L 112.792969 279.320312 C 112.597656 279.519531 112.382812 279.695312 112.152344 279.851562 C 111.917969 280.003906 111.675781 280.136719 111.417969 280.242188 C 111.160156 280.351562 110.894531 280.429688 110.621094 280.484375 C 110.347656 280.539062 110.070312 280.566406 109.792969 280.566406 C 109.511719 280.566406 109.238281 280.539062 108.964844 280.484375 C 108.691406 280.429688 108.425781 280.351562 108.167969 280.242188 C 107.910156 280.136719 107.664062 280.003906 107.433594 279.851562 C 107.199219 279.695312 106.988281 279.519531 106.789062 279.320312 L 102.296875 274.824219 C 102.097656 274.628906 101.921875 274.414062 101.765625 274.183594 C 101.613281 273.953125 101.480469 273.710938 101.375 273.453125 C 101.265625 273.195312 101.1875 272.929688 101.132812 272.65625 C 101.078125 272.382812 101.050781 272.109375 101.050781 271.832031 C 101.050781 271.550781 101.074219 271.277344 101.128906 271.003906 C 101.183594 270.730469 101.265625 270.464844 101.371094 270.207031 C 101.476562 269.949219 101.609375 269.707031 101.761719 269.476562 C 101.917969 269.242188 102.09375 269.03125 102.289062 268.832031 C 102.484375 268.636719 102.699219 268.460938 102.933594 268.304688 C 103.164062 268.152344 103.40625 268.019531 103.664062 267.914062 C 103.921875 267.808594 104.1875 267.726562 104.460938 267.671875 C 104.734375 267.621094 105.007812 267.59375 105.289062 267.59375 C 105.566406 267.59375 105.839844 267.621094 106.113281 267.675781 C 106.386719 267.730469 106.652344 267.8125 106.910156 267.917969 C 107.167969 268.023438 107.410156 268.15625 107.640625 268.3125 C 107.871094 268.464844 108.085938 268.640625 108.28125 268.839844 L 109.792969 270.332031 Z M 117.21875 262.902344 " fill-opacity="1" fill-rule="nonzero"/><path fill="#fa2d2d" d="M 306.800781 134.898438 L 229.601562 268.617188 L 200.488281 288.085938 L 202.789062 253.144531 L 280.003906 119.429688 C 280.199219 119.085938 280.429688 118.765625 280.691406 118.46875 C 280.953125 118.167969 281.238281 117.898438 281.554688 117.660156 C 281.867188 117.417969 282.199219 117.210938 282.554688 117.035156 C 282.910156 116.859375 283.28125 116.71875 283.660156 116.617188 C 284.042969 116.515625 284.433594 116.449219 284.828125 116.421875 C 285.222656 116.398438 285.617188 116.410156 286.007812 116.460938 C 286.402344 116.511719 286.785156 116.601562 287.160156 116.726562 C 287.535156 116.855469 287.894531 117.015625 288.238281 117.214844 L 304.585938 126.648438 C 304.929688 126.847656 305.25 127.078125 305.546875 127.339844 C 305.84375 127.601562 306.113281 127.890625 306.355469 128.203125 C 306.597656 128.519531 306.804688 128.855469 306.980469 129.210938 C 307.15625 129.566406 307.292969 129.933594 307.398438 130.316406 C 307.5 130.699219 307.5625 131.089844 307.589844 131.484375 C 307.617188 131.882812 307.605469 132.277344 307.554688 132.667969 C 307.5 133.0625 307.414062 133.445312 307.285156 133.820312 C 307.160156 134.195312 306.996094 134.558594 306.800781 134.902344 Z M 306.800781 134.898438 " fill-opacity="1" fill-rule="evenodd"/><path fill="#384868" d="M 306.800781 134.898438 L 299.800781 147.023438 L 273.003906 131.554688 L 280.003906 119.429688 C 280.199219 119.085938 280.429688 118.765625 280.691406 118.46875 C 280.949219 118.167969 281.238281 117.898438 281.550781 117.660156 C 281.867188 117.417969 282.199219 117.210938 282.554688 117.035156 C 282.910156 116.859375 283.277344 116.71875 283.660156 116.617188 C 284.042969 116.515625 284.433594 116.449219 284.828125 116.421875 C 285.222656 116.398438 285.617188 116.410156 286.007812 116.460938 C 286.402344 116.511719 286.785156 116.601562 287.160156 116.726562 C 287.535156 116.855469 287.894531 117.015625 288.238281 117.214844 L 304.585938 126.648438 C 304.929688 126.847656 305.25 127.078125 305.546875 127.339844 C 305.84375 127.601562 306.113281 127.890625 306.355469 128.203125 C 306.597656 128.519531 306.804688 128.855469 306.980469 129.210938 C 307.15625 129.566406 307.292969 129.933594 307.398438 130.316406 C 307.5 130.699219 307.5625 131.089844 307.589844 131.484375 C 307.617188 131.882812 307.605469 132.277344 307.550781 132.667969 C 307.5 133.0625 307.410156 133.445312 307.285156 133.820312 C 307.15625 134.195312 306.996094 134.558594 306.796875 134.902344 Z M 306.800781 134.898438 " fill-opacity="1" fill-rule="evenodd"/><path fill="#384868" d="M 229.601562 268.617188 L 200.488281 288.085938 L 202.789062 253.144531 Z M 229.601562 268.617188 " fill-opacity="1" fill-rule="evenodd"/><path fill="#cbd5de" d="M 73.390625 78.429688 L 82.292969 78.429688 L 82.292969 319.546875 L 73.390625 319.546875 Z M 73.390625 78.429688 " fill-opacity="1" fill-rule="nonzero"/><g clip-path="url(#6b98db7e8a)"><path fill="#e69915" d="M 73.390625 319.546875 L 73.390625 78.429688 L 82.292969 78.429688 L 82.292969 75.253906 C 82.296875 74.292969 82.394531 73.339844 82.582031 72.394531 C 82.773438 71.449219 83.054688 70.535156 83.425781 69.644531 C 83.792969 68.757812 84.246094 67.914062 84.785156 67.113281 C 85.320312 66.3125 85.929688 65.574219 86.609375 64.890625 C 87.289062 64.210938 88.03125 63.605469 88.832031 63.070312 C 89.632812 62.535156 90.476562 62.082031 91.367188 61.714844 C 92.257812 61.34375 93.171875 61.0625 94.117188 60.875 C 95.0625 60.6875 96.015625 60.589844 96.976562 60.585938 L 70.214844 60.585938 C 69.253906 60.589844 68.296875 60.6875 67.355469 60.875 C 66.410156 61.066406 65.492188 61.34375 64.605469 61.714844 C 63.714844 62.082031 62.871094 62.535156 62.070312 63.070312 C 61.269531 63.605469 60.527344 64.210938 59.847656 64.894531 C 59.167969 65.574219 58.558594 66.3125 58.023438 67.113281 C 57.484375 67.914062 57.03125 68.757812 56.664062 69.644531 C 56.292969 70.535156 56.011719 71.449219 55.820312 72.394531 C 55.628906 73.339844 55.535156 74.292969 55.53125 75.253906 L 55.53125 322.71875 C 55.535156 323.683594 55.628906 324.636719 55.820312 325.582031 C 56.011719 326.523438 56.292969 327.441406 56.664062 328.328125 C 57.03125 329.21875 57.484375 330.0625 58.023438 330.863281 C 58.558594 331.660156 59.167969 332.402344 59.847656 333.082031 C 60.527344 333.761719 61.269531 334.371094 62.070312 334.90625 C 62.871094 335.441406 63.714844 335.894531 64.605469 336.261719 C 65.492188 336.632812 66.410156 336.910156 67.355469 337.101562 C 68.296875 337.289062 69.253906 337.386719 70.214844 337.386719 L 96.976562 337.386719 C 96.015625 337.386719 95.0625 337.289062 94.117188 337.101562 C 93.171875 336.910156 92.257812 336.632812 91.367188 336.261719 C 90.476562 335.894531 89.632812 335.441406 88.832031 334.90625 C 88.03125 334.371094 87.289062 333.761719 86.609375 333.082031 C 85.929688 332.402344 85.320312 331.660156 84.785156 330.863281 C 84.246094 330.0625 83.792969 329.21875 83.425781 328.328125 C 83.054688 327.441406 82.773438 326.523438 82.582031 325.582031 C 82.394531 324.636719 82.296875 323.683594 82.292969 322.71875 L 82.292969 319.546875 Z M 73.390625 319.546875 " fill-opacity="1" fill-rule="evenodd"/></g><path fill="#283654" d="M 121.011719 76.386719 C 121.015625 74.75 121.242188 73.140625 121.691406 71.566406 C 122.140625 69.992188 122.796875 68.507812 123.65625 67.113281 C 124.515625 65.71875 125.546875 64.46875 126.753906 63.359375 C 127.960938 62.25 129.292969 61.328125 130.753906 60.585938 C 133.257812 59.300781 135.917969 58.660156 138.730469 58.667969 L 146.402344 58.667969 C 146.398438 58.121094 146.425781 57.578125 146.480469 57.035156 C 146.535156 56.492188 146.613281 55.953125 146.71875 55.417969 C 146.824219 54.886719 146.957031 54.355469 147.117188 53.835938 C 147.273438 53.3125 147.457031 52.800781 147.664062 52.296875 C 147.875 51.792969 148.105469 51.300781 148.363281 50.820312 C 148.621094 50.339844 148.898438 49.875 149.203125 49.421875 C 149.503906 48.96875 149.828125 48.53125 150.175781 48.109375 C 150.519531 47.6875 150.886719 47.285156 151.273438 46.898438 C 151.65625 46.511719 152.0625 46.148438 152.484375 45.800781 C 152.902344 45.457031 153.339844 45.132812 153.792969 44.828125 C 154.246094 44.527344 154.714844 44.246094 155.195312 43.988281 C 155.675781 43.734375 156.167969 43.5 156.671875 43.292969 C 157.175781 43.082031 157.6875 42.898438 158.210938 42.742188 C 158.730469 42.582031 159.257812 42.453125 159.792969 42.34375 C 160.328125 42.238281 160.867188 42.160156 161.410156 42.105469 C 161.953125 42.054688 162.496094 42.027344 163.039062 42.027344 C 165.679688 42.019531 168.171875 42.613281 170.523438 43.8125 C 170.046875 43.050781 169.511719 42.335938 168.917969 41.664062 C 168.328125 40.988281 167.683594 40.367188 166.992188 39.800781 C 166.296875 39.230469 165.5625 38.71875 164.789062 38.269531 C 164.011719 37.820312 163.207031 37.433594 162.371094 37.113281 C 161.53125 36.796875 160.671875 36.542969 159.796875 36.363281 C 158.917969 36.183594 158.03125 36.074219 157.132812 36.035156 C 156.238281 35.996094 155.347656 36.03125 154.457031 36.136719 C 153.566406 36.246094 152.6875 36.421875 151.828125 36.671875 C 150.964844 36.917969 150.128906 37.234375 149.320312 37.617188 C 148.507812 38 147.734375 38.445312 146.996094 38.957031 C 146.257812 39.464844 145.566406 40.027344 144.917969 40.648438 C 144.269531 41.269531 143.675781 41.9375 143.136719 42.65625 C 142.597656 43.371094 142.121094 44.125 141.703125 44.921875 C 141.289062 45.714844 140.9375 46.535156 140.652344 47.386719 C 140.371094 48.238281 140.15625 49.105469 140.011719 49.988281 C 139.867188 50.875 139.796875 51.765625 139.796875 52.660156 L 132.128906 52.660156 C 130.667969 52.664062 129.230469 52.84375 127.816406 53.203125 C 126.402344 53.558594 125.050781 54.085938 123.765625 54.777344 C 122.480469 55.46875 121.296875 56.304688 120.21875 57.289062 C 119.140625 58.269531 118.199219 59.371094 117.390625 60.585938 C 116.417969 62.035156 115.675781 63.59375 115.167969 65.261719 C 114.65625 66.929688 114.40625 68.636719 114.40625 70.382812 L 114.40625 83.710938 C 114.40625 84 114.433594 84.285156 114.492188 84.570312 C 114.546875 84.851562 114.632812 85.128906 114.742188 85.394531 C 114.851562 85.660156 114.988281 85.914062 115.148438 86.152344 C 115.308594 86.394531 115.488281 86.617188 115.691406 86.820312 C 115.898438 87.027344 116.117188 87.207031 116.359375 87.371094 C 116.597656 87.53125 116.851562 87.667969 117.117188 87.777344 C 117.382812 87.890625 117.65625 87.972656 117.941406 88.03125 C 118.222656 88.089844 118.507812 88.117188 118.796875 88.121094 L 121.011719 88.121094 Z M 121.011719 76.386719 " fill-opacity="1" fill-rule="evenodd"/><path fill="#1084b5" d="M 99.5 140.921875 C 99.5 139.789062 99.597656 138.667969 99.796875 137.554688 C 99.996094 136.441406 100.292969 135.355469 100.683594 134.296875 C 101.078125 133.234375 101.558594 132.21875 102.132812 131.242188 C 102.707031 130.269531 103.359375 129.351562 104.097656 128.492188 C 104.832031 127.636719 105.640625 126.847656 106.515625 126.132812 C 107.390625 125.417969 108.320312 124.785156 109.308594 124.234375 C 110.296875 123.6875 111.328125 123.226562 112.394531 122.859375 C 113.464844 122.492188 114.558594 122.222656 115.675781 122.050781 C 114.707031 121.90625 113.738281 121.832031 112.757812 121.828125 C 112.128906 121.820312 111.5 121.84375 110.871094 121.898438 C 110.246094 121.957031 109.621094 122.042969 109.003906 122.15625 C 108.382812 122.273438 107.773438 122.421875 107.167969 122.597656 C 106.5625 122.777344 105.96875 122.984375 105.382812 123.21875 C 104.800781 123.457031 104.230469 123.722656 103.671875 124.011719 C 103.113281 124.304688 102.570312 124.625 102.046875 124.972656 C 101.519531 125.320312 101.011719 125.691406 100.519531 126.085938 C 100.03125 126.484375 99.5625 126.902344 99.113281 127.347656 C 98.667969 127.789062 98.242188 128.253906 97.839844 128.738281 C 97.4375 129.222656 97.0625 129.726562 96.707031 130.25 C 96.355469 130.773438 96.03125 131.308594 95.730469 131.863281 C 95.433594 132.417969 95.160156 132.988281 94.917969 133.570312 C 94.675781 134.148438 94.464844 134.742188 94.277344 135.34375 C 94.09375 135.949219 93.941406 136.558594 93.816406 137.175781 C 93.691406 137.792969 93.601562 138.414062 93.539062 139.042969 C 93.476562 139.667969 93.445312 140.296875 93.445312 140.925781 C 93.445312 141.558594 93.476562 142.1875 93.539062 142.8125 C 93.601562 143.441406 93.691406 144.0625 93.816406 144.679688 C 93.941406 145.296875 94.09375 145.90625 94.277344 146.511719 C 94.464844 147.113281 94.675781 147.707031 94.917969 148.285156 C 95.160156 148.867188 95.433594 149.4375 95.730469 149.992188 C 96.03125 150.546875 96.355469 151.082031 96.707031 151.605469 C 97.0625 152.128906 97.4375 152.632812 97.839844 153.117188 C 98.242188 153.601562 98.667969 154.066406 99.113281 154.507812 C 99.5625 154.953125 100.03125 155.371094 100.519531 155.769531 C 101.011719 156.164062 101.519531 156.535156 102.046875 156.882812 C 102.570312 157.230469 103.113281 157.550781 103.671875 157.84375 C 104.230469 158.132812 104.800781 158.398438 105.382812 158.636719 C 105.96875 158.871094 106.5625 159.078125 107.167969 159.257812 C 107.773438 159.433594 108.382812 159.582031 109.003906 159.699219 C 109.621094 159.8125 110.246094 159.898438 110.871094 159.957031 C 111.5 160.011719 112.128906 160.035156 112.757812 160.027344 C 113.738281 160.023438 114.710938 159.949219 115.675781 159.804688 C 114.558594 159.632812 113.464844 159.359375 112.394531 158.992188 C 111.324219 158.625 110.296875 158.164062 109.308594 157.613281 C 108.320312 157.0625 107.386719 156.429688 106.511719 155.714844 C 105.636719 155 104.832031 154.210938 104.097656 153.351562 C 103.359375 152.492188 102.707031 151.574219 102.132812 150.601562 C 101.558594 149.625 101.078125 148.605469 100.683594 147.546875 C 100.292969 146.484375 99.996094 145.398438 99.796875 144.285156 C 99.597656 143.171875 99.5 142.050781 99.5 140.917969 Z M 99.5 140.921875 " fill-opacity="1" fill-rule="evenodd"/><path fill="#d91f1f" d="M 99.5 206.019531 C 99.5 204.890625 99.597656 203.769531 99.796875 202.65625 C 99.996094 201.542969 100.292969 200.457031 100.683594 199.394531 C 101.078125 198.335938 101.5625 197.316406 102.132812 196.34375 C 102.707031 195.367188 103.359375 194.453125 104.097656 193.59375 C 104.832031 192.734375 105.640625 191.949219 106.515625 191.234375 C 107.390625 190.519531 108.320312 189.886719 109.308594 189.335938 C 110.296875 188.785156 111.328125 188.328125 112.394531 187.960938 C 113.464844 187.59375 114.558594 187.324219 115.675781 187.152344 C 114.710938 187 113.738281 186.925781 112.757812 186.929688 C 112.132812 186.929688 111.511719 186.957031 110.886719 187.019531 C 110.265625 187.082031 109.648438 187.171875 109.035156 187.296875 C 108.421875 187.417969 107.816406 187.570312 107.214844 187.75 C 106.617188 187.933594 106.03125 188.140625 105.453125 188.382812 C 104.875 188.621094 104.308594 188.886719 103.757812 189.183594 C 103.207031 189.476562 102.671875 189.796875 102.152344 190.144531 C 101.632812 190.492188 101.128906 190.867188 100.648438 191.261719 C 100.164062 191.660156 99.699219 192.078125 99.257812 192.519531 C 98.816406 192.960938 98.398438 193.425781 98 193.910156 C 97.601562 194.390625 97.230469 194.894531 96.882812 195.414062 C 96.535156 195.933594 96.214844 196.46875 95.921875 197.019531 C 95.625 197.570312 95.359375 198.136719 95.121094 198.714844 C 94.878906 199.292969 94.667969 199.878906 94.488281 200.476562 C 94.304688 201.078125 94.15625 201.683594 94.03125 202.296875 C 93.910156 202.910156 93.820312 203.527344 93.757812 204.148438 C 93.695312 204.773438 93.664062 205.394531 93.664062 206.019531 C 93.664062 206.644531 93.695312 207.269531 93.757812 207.890625 C 93.820312 208.515625 93.910156 209.132812 94.03125 209.746094 C 94.15625 210.359375 94.304688 210.964844 94.488281 211.5625 C 94.667969 212.160156 94.878906 212.75 95.121094 213.328125 C 95.359375 213.90625 95.625 214.46875 95.921875 215.019531 C 96.214844 215.574219 96.535156 216.109375 96.882812 216.628906 C 97.230469 217.148438 97.601562 217.648438 98 218.132812 C 98.398438 218.617188 98.816406 219.078125 99.257812 219.519531 C 99.699219 219.964844 100.164062 220.382812 100.648438 220.78125 C 101.128906 221.175781 101.632812 221.546875 102.152344 221.894531 C 102.671875 222.242188 103.207031 222.5625 103.757812 222.859375 C 104.308594 223.152344 104.875 223.421875 105.453125 223.660156 C 106.03125 223.898438 106.617188 224.109375 107.214844 224.292969 C 107.816406 224.472656 108.421875 224.625 109.035156 224.746094 C 109.648438 224.867188 110.265625 224.960938 110.886719 225.019531 C 111.511719 225.082031 112.132812 225.113281 112.757812 225.113281 C 113.738281 225.117188 114.710938 225.042969 115.675781 224.890625 C 114.558594 224.71875 113.464844 224.449219 112.394531 224.082031 C 111.328125 223.714844 110.296875 223.253906 109.308594 222.707031 C 108.320312 222.15625 107.390625 221.523438 106.515625 220.808594 C 105.640625 220.09375 104.832031 219.304688 104.097656 218.449219 C 103.359375 217.589844 102.707031 216.671875 102.132812 215.699219 C 101.5625 214.722656 101.078125 213.707031 100.683594 212.644531 C 100.292969 211.585938 99.996094 210.5 99.796875 209.386719 C 99.597656 208.273438 99.5 207.152344 99.5 206.019531 Z M 99.5 206.019531 " fill-opacity="1" fill-rule="evenodd"/><path fill="#02802c" d="M 99.5 271.121094 C 99.5 269.988281 99.597656 268.867188 99.796875 267.753906 C 99.996094 266.640625 100.292969 265.554688 100.683594 264.492188 C 101.078125 263.433594 101.558594 262.414062 102.132812 261.4375 C 102.707031 260.464844 103.359375 259.546875 104.097656 258.6875 C 104.832031 257.828125 105.636719 257.039062 106.511719 256.324219 C 107.386719 255.609375 108.320312 254.976562 109.308594 254.425781 C 110.296875 253.875 111.324219 253.414062 112.394531 253.046875 C 113.464844 252.679688 114.558594 252.40625 115.675781 252.234375 C 114.707031 252.097656 113.738281 252.027344 112.757812 252.027344 C 112.132812 252.027344 111.511719 252.058594 110.886719 252.121094 C 110.265625 252.179688 109.648438 252.273438 109.035156 252.394531 C 108.421875 252.515625 107.816406 252.667969 107.214844 252.851562 C 106.617188 253.03125 106.03125 253.242188 105.453125 253.480469 C 104.875 253.722656 104.308594 253.988281 103.757812 254.28125 C 103.207031 254.578125 102.671875 254.898438 102.152344 255.246094 C 101.632812 255.59375 101.128906 255.964844 100.648438 256.363281 C 100.164062 256.757812 99.699219 257.179688 99.257812 257.621094 C 98.816406 258.0625 98.398438 258.523438 98 259.007812 C 97.601562 259.492188 97.230469 259.992188 96.882812 260.511719 C 96.535156 261.035156 96.214844 261.570312 95.921875 262.121094 C 95.625 262.671875 95.359375 263.238281 95.121094 263.8125 C 94.878906 264.390625 94.667969 264.980469 94.488281 265.578125 C 94.304688 266.175781 94.15625 266.78125 94.03125 267.394531 C 93.910156 268.007812 93.820312 268.628906 93.757812 269.25 C 93.695312 269.871094 93.664062 270.496094 93.664062 271.121094 C 93.664062 271.746094 93.695312 272.371094 93.757812 272.992188 C 93.820312 273.613281 93.910156 274.230469 94.03125 274.84375 C 94.15625 275.457031 94.304688 276.066406 94.488281 276.664062 C 94.667969 277.261719 94.878906 277.847656 95.121094 278.425781 C 95.359375 279.003906 95.625 279.570312 95.921875 280.121094 C 96.214844 280.671875 96.535156 281.207031 96.882812 281.726562 C 97.230469 282.246094 97.601562 282.75 98 283.234375 C 98.398438 283.714844 98.816406 284.179688 99.257812 284.621094 C 99.699219 285.0625 100.164062 285.484375 100.648438 285.878906 C 101.128906 286.277344 101.632812 286.648438 102.152344 286.996094 C 102.671875 287.34375 103.207031 287.664062 103.757812 287.957031 C 104.308594 288.253906 104.875 288.519531 105.453125 288.761719 C 106.03125 289 106.617188 289.210938 107.214844 289.390625 C 107.816406 289.574219 108.421875 289.722656 109.035156 289.847656 C 109.648438 289.96875 110.265625 290.058594 110.886719 290.121094 C 111.511719 290.183594 112.132812 290.214844 112.757812 290.214844 C 113.738281 290.21875 114.710938 290.144531 115.675781 289.988281 C 114.558594 289.816406 113.464844 289.546875 112.394531 289.179688 C 111.328125 288.8125 110.296875 288.355469 109.308594 287.804688 C 108.320312 287.253906 107.390625 286.621094 106.515625 285.90625 C 105.640625 285.191406 104.832031 284.40625 104.097656 283.546875 C 103.359375 282.6875 102.707031 281.773438 102.132812 280.796875 C 101.5625 279.824219 101.078125 278.804688 100.683594 277.746094 C 100.292969 276.683594 99.996094 275.597656 99.796875 274.484375 C 99.597656 273.371094 99.5 272.25 99.5 271.121094 Z M 99.5 271.121094 " fill-opacity="1" fill-rule="evenodd"/><path fill="#283654" d="M 211.246094 280.882812 L 212.703125 258.855469 L 202.789062 253.144531 L 200.488281 288.085938 Z M 211.246094 280.882812 " fill-opacity="1" fill-rule="evenodd"/><path fill="#d91f1f" d="M 202.789062 253.144531 L 212.703125 258.855469 L 239.464844 212.503906 L 257.324219 181.59375 L 282.902344 137.265625 L 273.003906 131.554688 L 257.324219 158.710938 L 239.464844 189.621094 Z M 202.789062 253.144531 " fill-opacity="1" fill-rule="evenodd"/><path fill="#283654" d="M 273.003906 131.554688 L 282.902344 137.265625 L 289.917969 125.140625 C 290.117188 124.800781 290.34375 124.480469 290.605469 124.183594 C 290.863281 123.890625 291.148438 123.621094 291.460938 123.378906 C 291.773438 123.140625 292.105469 122.933594 292.460938 122.757812 C 292.8125 122.582031 293.179688 122.445312 293.558594 122.339844 C 293.941406 122.238281 294.328125 122.171875 294.71875 122.144531 C 295.113281 122.117188 295.503906 122.125 295.894531 122.175781 C 296.285156 122.222656 296.667969 122.308594 297.042969 122.433594 C 297.417969 122.558594 297.773438 122.714844 298.117188 122.910156 L 288.238281 117.214844 C 287.894531 117.015625 287.535156 116.855469 287.160156 116.726562 C 286.785156 116.601562 286.402344 116.511719 286.007812 116.460938 C 285.617188 116.410156 285.222656 116.398438 284.828125 116.421875 C 284.433594 116.449219 284.042969 116.515625 283.660156 116.617188 C 283.277344 116.71875 282.910156 116.859375 282.554688 117.035156 C 282.199219 117.210938 281.867188 117.417969 281.550781 117.660156 C 281.238281 117.898438 280.949219 118.167969 280.691406 118.46875 C 280.429688 118.765625 280.199219 119.085938 280.003906 119.429688 Z M 273.003906 131.554688 " fill-opacity="1" fill-rule="evenodd"/></svg>