<svg xmlns="http://www.w3.org/2000/svg" xmlns:xlink="http://www.w3.org/1999/xlink" width="500" zoomAndPan="magnify" viewBox="0 0 375 374.999991" height="500" preserveAspectRatio="xMidYMid meet" version="1.0"><defs><clipPath id="d84b4d0835"><path d="M 31 23.339844 L 337 23.339844 L 337 333.839844 L 31 333.839844 Z M 31 23.339844 " clip-rule="nonzero"/></clipPath></defs><g clip-path="url(#d84b4d0835)"><path fill="#ffffff" d="M 331.625 167.902344 L 201.429688 30.777344 C 200.304688 29.59375 199.070312 28.535156 197.726562 27.601562 C 196.382812 26.667969 194.960938 25.878906 193.460938 25.234375 C 191.957031 24.589844 190.40625 24.101562 188.804688 23.769531 C 187.203125 23.4375 185.585938 23.273438 183.949219 23.269531 C 182.3125 23.261719 180.695312 23.421875 179.089844 23.75 C 177.488281 24.078125 175.933594 24.5625 174.429688 25.207031 C 172.925781 25.855469 171.503906 26.644531 170.164062 27.582031 C 168.824219 28.519531 167.589844 29.585938 166.46875 30.777344 C 123.082031 76.5 79.683594 122.21875 36.28125 167.941406 C 35.742188 168.511719 35.246094 169.117188 34.792969 169.757812 C 34.339844 170.398438 33.9375 171.070312 33.582031 171.773438 C 33.226562 172.472656 32.925781 173.195312 32.675781 173.941406 C 32.425781 174.683594 32.234375 175.441406 32.09375 176.214844 C 31.957031 176.988281 31.875 177.769531 31.851562 178.554688 C 31.828125 179.335938 31.859375 180.121094 31.949219 180.898438 C 32.039062 181.679688 32.183594 182.449219 32.386719 183.207031 C 32.585938 183.96875 32.84375 184.707031 33.152344 185.429688 C 33.464844 186.152344 33.824219 186.847656 34.234375 187.515625 C 34.648438 188.183594 35.105469 188.820312 35.609375 189.421875 C 36.113281 190.023438 36.65625 190.585938 37.242188 191.109375 C 37.828125 191.628906 38.449219 192.109375 39.105469 192.539062 C 39.761719 192.972656 40.445312 193.351562 41.15625 193.6875 C 41.871094 194.019531 42.601562 194.296875 43.351562 194.523438 C 44.105469 194.746094 44.871094 194.917969 45.648438 195.03125 C 46.425781 195.144531 47.203125 195.199219 47.992188 195.199219 L 54.734375 195.199219 L 54.734375 309.75 C 54.734375 310.546875 54.773438 311.34375 54.851562 312.140625 C 54.933594 312.933594 55.050781 313.722656 55.207031 314.507812 C 55.363281 315.289062 55.558594 316.0625 55.789062 316.828125 C 56.023438 317.589844 56.292969 318.34375 56.597656 319.078125 C 56.902344 319.816406 57.246094 320.539062 57.621094 321.242188 C 58 321.945312 58.410156 322.628906 58.855469 323.292969 C 59.296875 323.957031 59.773438 324.597656 60.28125 325.214844 C 60.785156 325.832031 61.320312 326.421875 61.886719 326.988281 C 62.453125 327.554688 63.042969 328.089844 63.660156 328.59375 C 64.277344 329.101562 64.917969 329.578125 65.582031 330.023438 C 66.246094 330.464844 66.929688 330.875 67.632812 331.253906 C 68.335938 331.628906 69.058594 331.972656 69.796875 332.277344 C 70.535156 332.582031 71.285156 332.851562 72.046875 333.085938 C 72.8125 333.316406 73.585938 333.511719 74.367188 333.667969 C 75.152344 333.824219 75.941406 333.941406 76.734375 334.023438 C 77.53125 334.101562 78.328125 334.140625 79.125 334.144531 L 288.785156 334.144531 C 289.582031 334.140625 290.378906 334.101562 291.171875 334.023438 C 291.96875 333.941406 292.757812 333.824219 293.539062 333.667969 C 294.324219 333.511719 295.097656 333.316406 295.859375 333.082031 C 296.625 332.851562 297.375 332.582031 298.113281 332.277344 C 298.851562 331.96875 299.570312 331.628906 300.273438 331.25 C 300.976562 330.875 301.664062 330.464844 302.324219 330.019531 C 302.988281 329.574219 303.628906 329.101562 304.246094 328.59375 C 304.863281 328.085938 305.457031 327.550781 306.019531 326.988281 C 306.585938 326.421875 307.121094 325.832031 307.628906 325.214844 C 308.132812 324.597656 308.609375 323.957031 309.054688 323.292969 C 309.496094 322.628906 309.90625 321.945312 310.285156 321.242188 C 310.660156 320.535156 311.003906 319.816406 311.308594 319.078125 C 311.617188 318.339844 311.882812 317.589844 312.117188 316.828125 C 312.351562 316.0625 312.542969 315.289062 312.699219 314.503906 C 312.859375 313.722656 312.976562 312.933594 313.054688 312.140625 C 313.132812 311.34375 313.175781 310.546875 313.175781 309.75 L 313.175781 195.164062 L 319.914062 195.164062 C 320.699219 195.164062 321.480469 195.109375 322.257812 194.992188 C 323.035156 194.878906 323.796875 194.710938 324.550781 194.484375 C 325.304688 194.261719 326.035156 193.980469 326.746094 193.648438 C 327.457031 193.316406 328.140625 192.9375 328.796875 192.503906 C 329.453125 192.070312 330.074219 191.59375 330.660156 191.074219 C 331.246094 190.550781 331.792969 189.988281 332.296875 189.386719 C 332.800781 188.785156 333.257812 188.148438 333.671875 187.480469 C 334.082031 186.808594 334.441406 186.113281 334.753906 185.394531 C 335.0625 184.671875 335.316406 183.929688 335.519531 183.171875 C 335.722656 182.414062 335.867188 181.644531 335.957031 180.863281 C 336.046875 180.082031 336.078125 179.300781 336.054688 178.515625 C 336.03125 177.730469 335.949219 176.953125 335.808594 176.179688 C 335.671875 175.40625 335.476562 174.648438 335.226562 173.902344 C 334.980469 173.15625 334.675781 172.433594 334.324219 171.734375 C 333.96875 171.035156 333.5625 170.363281 333.113281 169.71875 C 332.660156 169.078125 332.164062 168.472656 331.621094 167.902344 Z M 143.820312 319.496094 L 143.820312 203.726562 C 143.820312 203.339844 143.855469 202.957031 143.933594 202.574219 C 144.007812 202.195312 144.117188 201.824219 144.265625 201.46875 C 144.414062 201.109375 144.597656 200.769531 144.8125 200.445312 C 145.027344 200.121094 145.273438 199.824219 145.546875 199.550781 C 145.820312 199.277344 146.121094 199.03125 146.441406 198.816406 C 146.765625 198.601562 147.105469 198.417969 147.464844 198.269531 C 147.824219 198.121094 148.191406 198.007812 148.574219 197.933594 C 148.953125 197.859375 149.339844 197.820312 149.726562 197.820312 L 218.175781 197.820312 C 218.5625 197.820312 218.945312 197.859375 219.328125 197.933594 C 219.707031 198.011719 220.078125 198.121094 220.433594 198.269531 C 220.792969 198.417969 221.132812 198.601562 221.457031 198.816406 C 221.777344 199.03125 222.078125 199.277344 222.351562 199.550781 C 222.625 199.824219 222.871094 200.125 223.085938 200.445312 C 223.300781 200.769531 223.484375 201.109375 223.632812 201.46875 C 223.78125 201.828125 223.890625 202.195312 223.96875 202.574219 C 224.042969 202.957031 224.078125 203.339844 224.078125 203.726562 L 224.078125 319.496094 Z M 319.917969 180.769531 L 305.984375 180.769531 C 305.511719 180.769531 305.042969 180.8125 304.582031 180.90625 C 304.117188 181 303.667969 181.136719 303.230469 181.316406 C 302.792969 181.496094 302.378906 181.71875 301.984375 181.980469 C 301.59375 182.242188 301.230469 182.542969 300.894531 182.875 C 300.5625 183.210938 300.261719 183.574219 300 183.96875 C 299.738281 184.359375 299.515625 184.773438 299.335938 185.210938 C 299.152344 185.648438 299.015625 186.097656 298.925781 186.5625 C 298.832031 187.027344 298.785156 187.492188 298.785156 187.964844 L 298.785156 309.746094 C 298.785156 310.402344 298.71875 311.054688 298.589844 311.695312 C 298.457031 312.339844 298.269531 312.964844 298.015625 313.570312 C 297.761719 314.175781 297.453125 314.753906 297.089844 315.296875 C 296.726562 315.84375 296.3125 316.347656 295.847656 316.8125 C 295.382812 317.277344 294.878906 317.691406 294.332031 318.054688 C 293.789062 318.421875 293.210938 318.730469 292.605469 318.984375 C 292 319.234375 291.375 319.425781 290.734375 319.554688 C 290.089844 319.6875 289.441406 319.753906 288.785156 319.753906 L 238.476562 319.753906 L 238.476562 203.726562 C 238.476562 203.0625 238.441406 202.402344 238.378906 201.738281 C 238.3125 201.078125 238.214844 200.421875 238.085938 199.769531 C 237.957031 199.117188 237.792969 198.472656 237.601562 197.835938 C 237.410156 197.199219 237.183594 196.574219 236.929688 195.960938 C 236.675781 195.347656 236.390625 194.746094 236.078125 194.160156 C 235.765625 193.574219 235.425781 193.003906 235.054688 192.453125 C 234.6875 191.902344 234.289062 191.367188 233.867188 190.851562 C 233.445312 190.339844 233 189.847656 232.53125 189.378906 C 232.0625 188.90625 231.570312 188.460938 231.054688 188.039062 C 230.542969 187.617188 230.007812 187.222656 229.457031 186.855469 C 228.902344 186.484375 228.332031 186.144531 227.746094 185.828125 C 227.160156 185.515625 226.5625 185.234375 225.945312 184.976562 C 225.332031 184.722656 224.707031 184.5 224.070312 184.308594 C 223.4375 184.113281 222.792969 183.953125 222.140625 183.824219 C 221.488281 183.695312 220.832031 183.597656 220.167969 183.53125 C 219.507812 183.464844 218.84375 183.433594 218.179688 183.433594 L 149.726562 183.433594 C 149.0625 183.433594 148.398438 183.464844 147.738281 183.53125 C 147.074219 183.597656 146.417969 183.695312 145.765625 183.824219 C 145.113281 183.953125 144.472656 184.113281 143.835938 184.308594 C 143.199219 184.5 142.574219 184.722656 141.960938 184.976562 C 141.34375 185.234375 140.746094 185.515625 140.160156 185.828125 C 139.574219 186.144531 139.003906 186.484375 138.449219 186.855469 C 137.898438 187.222656 137.363281 187.617188 136.851562 188.039062 C 136.335938 188.460938 135.84375 188.90625 135.375 189.378906 C 134.90625 189.847656 134.460938 190.339844 134.039062 190.851562 C 133.617188 191.367188 133.222656 191.902344 132.851562 192.453125 C 132.480469 193.007812 132.140625 193.574219 131.828125 194.160156 C 131.515625 194.746094 131.230469 195.347656 130.976562 195.960938 C 130.722656 196.574219 130.5 197.199219 130.304688 197.835938 C 130.113281 198.472656 129.949219 199.117188 129.820312 199.769531 C 129.691406 200.421875 129.59375 201.078125 129.527344 201.738281 C 129.464844 202.402344 129.429688 203.0625 129.429688 203.726562 L 129.429688 319.761719 L 79.117188 319.761719 C 78.460938 319.761719 77.8125 319.695312 77.167969 319.5625 C 76.523438 319.433594 75.898438 319.242188 75.292969 318.992188 C 74.6875 318.738281 74.113281 318.429688 73.566406 318.066406 C 73.023438 317.699219 72.515625 317.285156 72.054688 316.820312 C 71.589844 316.355469 71.175781 315.851562 70.808594 315.304688 C 70.445312 314.761719 70.136719 314.183594 69.882812 313.578125 C 69.632812 312.972656 69.441406 312.347656 69.3125 311.707031 C 69.179688 311.0625 69.113281 310.410156 69.113281 309.753906 L 69.113281 188 C 69.113281 187.527344 69.066406 187.0625 68.972656 186.597656 C 68.882812 186.132812 68.746094 185.683594 68.566406 185.246094 C 68.382812 184.8125 68.164062 184.394531 67.898438 184.003906 C 67.636719 183.609375 67.339844 183.246094 67.003906 182.914062 C 66.671875 182.578125 66.308594 182.28125 65.914062 182.015625 C 65.519531 181.753906 65.105469 181.53125 64.671875 181.351562 C 64.234375 181.171875 63.785156 181.035156 63.320312 180.941406 C 62.855469 180.847656 62.386719 180.804688 61.914062 180.804688 L 47.976562 180.804688 C 47.628906 180.800781 47.308594 180.707031 47.015625 180.511719 C 46.726562 180.320312 46.511719 180.066406 46.375 179.742188 C 46.234375 179.421875 46.199219 179.089844 46.261719 178.746094 C 46.320312 178.402344 46.472656 178.105469 46.714844 177.851562 C 90.128906 132.128906 133.527344 86.410156 176.910156 40.6875 C 177.371094 40.222656 177.875 39.808594 178.417969 39.445312 C 178.960938 39.082031 179.535156 38.773438 180.140625 38.523438 C 180.742188 38.273438 181.367188 38.082031 182.007812 37.953125 C 182.648438 37.828125 183.296875 37.761719 183.953125 37.761719 C 184.605469 37.761719 185.253906 37.828125 185.894531 37.953125 C 186.535156 38.082031 187.160156 38.273438 187.765625 38.523438 C 188.367188 38.773438 188.941406 39.082031 189.484375 39.445312 C 190.027344 39.808594 190.53125 40.222656 190.992188 40.6875 L 321.191406 177.816406 C 321.621094 178.222656 321.777344 178.714844 321.65625 179.296875 C 321.625 179.503906 321.554688 179.699219 321.453125 179.878906 C 321.351562 180.0625 321.222656 180.222656 321.0625 180.355469 C 320.902344 180.492188 320.722656 180.59375 320.527344 180.664062 C 320.332031 180.738281 320.128906 180.769531 319.917969 180.769531 Z M 319.917969 180.769531 " fill-opacity="1" fill-rule="nonzero"/></g></svg>