<svg xmlns="http://www.w3.org/2000/svg" xmlns:xlink="http://www.w3.org/1999/xlink" width="500" zoomAndPan="magnify" viewBox="0 0 375 374.999991" height="500" preserveAspectRatio="xMidYMid meet" version="1.0"><defs><clipPath id="38a367d25e"><path d="M 37.5 63.933594 L 351 63.933594 L 351 337.683594 L 37.5 337.683594 Z M 37.5 63.933594 " clip-rule="nonzero"/></clipPath></defs><g clip-path="url(#38a367d25e)"><path fill="#009933" d="M 174.25 63.949219 C 209.261719 63.949219 241.148438 77.089844 265.359375 98.8125 L 263.394531 100.152344 C 258.84375 103.28125 254.191406 106.585938 249.726562 109.988281 C 229.269531 92.921875 202.921875 82.71875 174.25 82.71875 C 109.050781 82.71875 56.167969 135.542969 56.167969 200.808594 C 56.167969 266.058594 109.050781 318.980469 174.25 318.980469 C 239.449219 318.980469 292.242188 266.058594 292.242188 200.808594 C 292.242188 182.660156 288.230469 165.503906 280.902344 150.210938 C 285.105469 144.839844 289.480469 139.660156 293.945312 134.65625 C 304.835938 154.226562 311 176.839844 311 200.808594 C 311 276.433594 249.726562 337.667969 174.25 337.667969 C 98.683594 337.667969 37.5 276.433594 37.5 200.808594 C 37.5 125.269531 98.683594 63.949219 174.25 63.949219 Z M 171.648438 211.984375 C 153.253906 189.195312 125.46875 151.738281 103.859375 166.304688 C 89.933594 175.691406 83.402344 186.328125 89.21875 198.304688 C 95.296875 210.730469 149.953125 264.265625 163.882812 272.050781 C 182.8125 282.777344 195.945312 269.460938 207.824219 246.484375 C 235.695312 192.585938 270.710938 121.792969 351 68.691406 C 321.789062 74.0625 265.257812 113.03125 250.339844 125.546875 C 213.1875 157.007812 180.402344 202.058594 171.648438 211.984375 Z M 171.648438 211.984375 " fill-opacity="1" fill-rule="evenodd"/></g></svg>