<svg xmlns="http://www.w3.org/2000/svg" xmlns:xlink="http://www.w3.org/1999/xlink" width="500" zoomAndPan="magnify" viewBox="0 0 375 374.999991" height="500" preserveAspectRatio="xMidYMid meet" version="1.0"><defs><clipPath id="5440c8604b"><path d="M 41.589844 55.410156 L 337.660156 55.410156 L 337.660156 319.410156 L 41.589844 319.410156 Z M 41.589844 55.410156 " clip-rule="nonzero"/></clipPath></defs><g clip-path="url(#5440c8604b)"><path fill="#f7be1c" d="M 71.371094 319.414062 C 60.761719 319.414062 50.875 313.714844 45.570312 304.539062 C 40.265625 295.363281 40.265625 283.964844 45.570312 274.789062 L 163.820312 70.285156 C 169.125 61.109375 179.015625 55.410156 189.625 55.410156 C 200.234375 55.410156 210.125 61.109375 215.425781 70.285156 L 333.679688 274.789062 C 338.984375 283.964844 338.984375 295.363281 333.679688 304.539062 C 328.375 313.714844 318.488281 319.414062 307.878906 319.414062 L 71.371094 319.414062 " fill-opacity="1" fill-rule="nonzero"/></g><path fill="#f7be1c" d="M 179.636719 79.398438 L 61.382812 283.90625 C 56.945312 291.582031 62.496094 301.179688 71.371094 301.179688 L 307.878906 301.179688 C 316.757812 301.179688 322.304688 291.582031 317.867188 283.90625 L 199.613281 79.398438 C 195.175781 71.722656 184.078125 71.722656 179.636719 79.398438 " fill-opacity="1" fill-rule="nonzero"/><path fill="#f7be1c" d="M 179.636719 79.398438 L 61.382812 283.90625 C 56.945312 291.582031 62.496094 301.179688 71.371094 301.179688 L 307.878906 301.179688 C 316.757812 301.179688 322.304688 291.582031 317.867188 283.90625 L 199.613281 79.398438 C 195.175781 71.722656 184.078125 71.722656 179.636719 79.398438 " fill-opacity="1" fill-rule="nonzero"/><path fill="#231f20" d="M 179.636719 79.402344 L 185.601562 82.839844 L 67.351562 287.34375 C 66.140625 289.4375 66.949219 291.285156 67.351562 291.980469 C 67.753906 292.679688 68.953125 294.300781 71.375 294.300781 L 307.875 294.300781 C 310.296875 294.300781 311.496094 292.679688 311.898438 291.980469 C 312.304688 291.285156 313.109375 289.4375 311.898438 287.34375 L 193.648438 82.839844 C 192.4375 80.746094 190.429688 80.519531 189.625 80.519531 C 188.816406 80.519531 186.8125 80.746094 185.601562 82.839844 Z M 307.875 308.058594 L 71.375 308.058594 C 64.710938 308.058594 58.75 304.617188 55.417969 298.859375 C 52.089844 293.101562 52.089844 286.226562 55.417969 280.464844 L 173.671875 75.960938 C 177 70.203125 182.964844 66.765625 189.625 66.765625 C 196.285156 66.765625 202.25 70.203125 205.578125 75.960938 L 323.832031 280.464844 C 327.160156 286.226562 327.160156 293.101562 323.832031 298.859375 C 320.5 304.617188 314.539062 308.058594 307.875 308.058594 " fill-opacity="1" fill-rule="nonzero"/><path fill="#231f20" d="M 204.808594 139.152344 L 198.34375 238.332031 C 198.289062 239.171875 197.585938 239.824219 196.742188 239.824219 L 182.507812 239.824219 C 181.664062 239.824219 180.964844 239.171875 180.910156 238.332031 L 174.441406 139.152344 C 174.382812 138.230469 175.113281 137.449219 176.039062 137.449219 L 203.207031 137.449219 C 204.136719 137.449219 204.867188 138.230469 204.808594 139.152344 " fill-opacity="1" fill-rule="nonzero"/><path fill="#231f20" d="M 176.308594 262.523438 C 176.308594 255.179688 182.269531 249.226562 189.625 249.226562 C 196.980469 249.226562 202.941406 255.179688 202.941406 262.523438 C 202.941406 269.863281 196.980469 275.816406 189.625 275.816406 C 182.269531 275.816406 176.308594 269.863281 176.308594 262.523438 " fill-opacity="1" fill-rule="nonzero"/></svg>