<svg xmlns="http://www.w3.org/2000/svg" xmlns:xlink="http://www.w3.org/1999/xlink" width="500" zoomAndPan="magnify" viewBox="0 0 375 374.999991" height="500" preserveAspectRatio="xMidYMid meet" version="1.0"><defs><clipPath id="4de51ee5bd"><path d="M 50.347656 50.347656 L 324.847656 50.347656 L 324.847656 324.847656 L 50.347656 324.847656 Z M 50.347656 50.347656 " clip-rule="nonzero"/></clipPath></defs><g clip-path="url(#4de51ee5bd)"><path fill="#000000" d="M 324.964844 253.46875 L 324.964844 286.0625 C 324.964844 307.464844 307.480469 324.953125 286.074219 324.953125 L 253.480469 324.953125 L 253.480469 311.75 L 286.074219 311.75 C 300.191406 311.75 311.761719 300.179688 311.761719 286.0625 L 311.761719 253.46875 Z M 299.382812 194.285156 L 75.996094 194.285156 L 75.996094 181.082031 L 299.382812 181.082031 Z M 277.574219 213.402344 L 277.574219 234.179688 C 277.574219 257.726562 258.324219 276.960938 234.792969 276.960938 L 140.597656 276.960938 C 117.054688 276.960938 97.816406 257.726562 97.816406 234.179688 L 97.816406 213.402344 L 111.019531 213.402344 L 111.019531 234.179688 C 111.019531 250.4375 124.339844 263.757812 140.597656 263.757812 L 234.792969 263.757812 C 251.050781 263.757812 264.371094 250.4375 264.371094 234.179688 L 264.371094 213.402344 Z M 97.804688 161.964844 L 97.804688 141.1875 C 97.804688 117.640625 117.054688 98.40625 140.585938 98.40625 L 234.78125 98.40625 C 258.324219 98.40625 277.5625 117.640625 277.5625 141.1875 L 277.5625 161.964844 L 264.359375 161.964844 L 264.359375 141.1875 C 264.359375 124.929688 251.039062 111.609375 234.78125 111.609375 L 140.585938 111.609375 C 124.328125 111.609375 111.007812 124.929688 111.007812 141.1875 L 111.007812 161.964844 Z M 121.898438 324.953125 L 89.304688 324.953125 C 67.898438 324.953125 50.414062 307.464844 50.414062 286.0625 L 50.414062 253.46875 L 63.617188 253.46875 L 63.617188 286.0625 C 63.617188 300.179688 75.1875 311.75 89.304688 311.75 L 121.898438 311.75 Z M 50.414062 121.886719 L 50.414062 89.289062 C 50.414062 67.886719 67.898438 50.402344 89.304688 50.402344 L 121.898438 50.402344 L 121.898438 63.601562 L 89.304688 63.601562 C 75.1875 63.601562 63.617188 75.1875 63.617188 89.289062 L 63.617188 121.886719 Z M 253.480469 50.402344 L 286.074219 50.402344 C 307.480469 50.402344 324.964844 67.886719 324.964844 89.289062 L 324.964844 121.886719 L 311.761719 121.886719 L 311.761719 89.289062 C 311.761719 75.171875 300.191406 63.601562 286.074219 63.601562 L 253.480469 63.601562 Z M 253.480469 50.402344 " fill-opacity="1" fill-rule="nonzero"/></g></svg>